<?xml version="1.0" encoding="UTF-8" standalone="no"?>
<svg
   xmlns:dc="http://purl.org/dc/elements/1.1/"
   xmlns:cc="http://creativecommons.org/ns#"
   xmlns:rdf="http://www.w3.org/1999/02/22-rdf-syntax-ns#"
   xmlns:svg="http://www.w3.org/2000/svg"
   xmlns="http://www.w3.org/2000/svg"
   xmlns:sodipodi="http://sodipodi.sourceforge.net/DTD/sodipodi-0.dtd"
   xmlns:inkscape="http://www.inkscape.org/namespaces/inkscape"
   width="3000"
   height="500"
   viewBox="0 0 793.74996 132.29167"
   version="1.1"
   id="svg1689"
   sodipodi:docname="infodark.svg"
   inkscape:version="1.0rc1 (6fa2e807c7, 2020-04-19)">
  <defs
     id="defs1683">
    <inkscape:path-effect
       message="Use fill-rule evenodd on &lt;b&gt;fill and stroke&lt;/b&gt; dialog if no flatten result after convert clip to paths."
       hide_clip="false"
       flatten="false"
       inverse="true"
       lpeversion="1"
       is_visible="true"
       id="path-effect3349"
       effect="powerclip" />
    <inkscape:path-effect
       message="Use fill-rule evenodd on &lt;b&gt;fill and stroke&lt;/b&gt; dialog if no flatten result after convert clip to paths."
       hide_clip="false"
       flatten="false"
       inverse="true"
       lpeversion="1"
       is_visible="true"
       id="path-effect1693"
       effect="powerclip" />
    <inkscape:path-effect
       effect="powerclip"
       id="path-effect3121"
       is_visible="true"
       lpeversion="1"
       inverse="true"
       flatten="false"
       hide_clip="false"
       message="Use fill-rule evenodd on &lt;b&gt;fill and stroke&lt;/b&gt; dialog if no flatten result after convert clip to paths." />
    <clipPath
       clipPathUnits="userSpaceOnUse"
       id="clipPath1639">
      <rect
         style="opacity:1;fill:#aad400;fill-opacity:0.984314;stroke:#000000;stroke-width:0;stroke-linejoin:round;stroke-miterlimit:4;stroke-dasharray:none;stroke-dashoffset:0;stroke-opacity:0.984314;paint-order:normal"
         id="rect1641"
         width="140.58318"
         height="156.33647"
         x="-99.436546"
         y="154.95518"
         ry="7.2984943"
         transform="rotate(-11.152086)" />
    </clipPath>
    <clipPath
       clipPathUnits="userSpaceOnUse"
       id="clipPath3113">
      <g
         id="g3119"
         style="display:none">
        <rect
           d="m 71.881989,83.97921 h 13.704245 c 0.05182,0 0.09354,0.04172 0.09354,0.09354 v 11.833358 c 0,0.05182 -0.04172,0.09355 -0.09354,0.09355 H 71.881989 c -0.05182,0 -0.09354,-0.04172 -0.09354,-0.09355 V 84.072754 c 0,-0.05182 0.04172,-0.09354 0.09354,-0.09354 z"
           rx="0"
           ry="0.09354423"
           y="83.97921"
           x="71.788445"
           height="12.020447"
           width="13.891334"
           id="rect3115"
           style="opacity:1;fill:#008080;fill-opacity:1;stroke:#008080;stroke-width:0;stroke-linejoin:round;stroke-miterlimit:10;stroke-dasharray:none;stroke-dashoffset:0;stroke-opacity:1;paint-order:normal" />
        <rect
           d="m 61.728298,98.492737 h 13.704246 c 0.05182,0 0.09354,0.04172 0.09354,0.09354 v 11.833359 c 0,0.0518 -0.04172,0.0935 -0.09354,0.0935 H 61.728298 c -0.05182,0 -0.09354,-0.0417 -0.09354,-0.0935 V 98.586281 c 0,-0.05182 0.04172,-0.09354 0.09354,-0.09354 z"
           transform="rotate(-8.2623057)"
           inkscape:transform-center-y="-5.3547132"
           inkscape:transform-center-x="2.4536322"
           style="display:inline;opacity:1;fill:#008080;fill-opacity:1;stroke:#008080;stroke-width:0;stroke-linejoin:round;stroke-miterlimit:10;stroke-dasharray:none;stroke-dashoffset:0;stroke-opacity:1;paint-order:normal"
           id="rect3117"
           width="13.891334"
           height="12.020447"
           x="61.634754"
           y="98.492737"
           ry="0.09354423"
           rx="0" />
      </g>
      <path
         id="lpe_path-effect3121"
         class="powerclip"
         d="M 73.963873,75.700186 H 97.238092 V 98.974405 H 73.963873 Z" />
    </clipPath>
    <clipPath
       id="clipPath1642"
       clipPathUnits="userSpaceOnUse">
      <rect
         transform="rotate(-45.108371)"
         y="114.20989"
         x="-17.220911"
         height="11.091309"
         width="5.0634227"
         id="rect1644"
         style="display:inline;opacity:1;fill:#008080;fill-opacity:0.984314;stroke:#008080;stroke-width:0;stroke-linejoin:round;stroke-miterlimit:4;stroke-dasharray:none;stroke-dashoffset:0;stroke-opacity:0.984314;paint-order:normal" />
    </clipPath>
    <clipPath
       id="clipPath1646"
       clipPathUnits="userSpaceOnUse">
      <rect
         transform="rotate(-53.593009)"
         y="114.20989"
         x="-17.220911"
         height="11.091309"
         width="5.0634227"
         id="rect1648"
         style="display:inline;opacity:1;fill:#008080;fill-opacity:0.984314;stroke:#008080;stroke-width:0;stroke-linejoin:round;stroke-miterlimit:4;stroke-dasharray:none;stroke-dashoffset:0;stroke-opacity:0.984314;paint-order:normal" />
    </clipPath>
    <clipPath
       id="clipPath1662"
       clipPathUnits="userSpaceOnUse">
      <rect
         clip-path="url(#clipPath1642)"
         style="opacity:0.0820379;fill:#008080;fill-opacity:0.984314;stroke:#008080;stroke-width:0;stroke-linejoin:round;stroke-miterlimit:4;stroke-dasharray:none;stroke-dashoffset:0;stroke-opacity:0.984314;paint-order:normal"
         id="rect1664"
         width="5.0634227"
         height="11.091309"
         x="75.124969"
         y="97.046478"
         transform="matrix(-0.19856136,1.4765072,-1.6700492,0.11996261,266.99705,-43.026513)"
         d="m 75.124969,97.046478 h 5.063423 v 11.091312 h -5.063423 z" />
    </clipPath>
    <clipPath
       clipPathUnits="userSpaceOnUse"
       id="clipPath1662-5">
      <rect
         d="m 75.124969,97.046478 h 5.063423 v 11.091312 h -5.063423 z"
         transform="matrix(-0.19856136,1.4765072,-1.6700492,0.11996261,266.99705,-43.026513)"
         y="97.046478"
         x="75.124969"
         height="11.091309"
         width="5.0634227"
         id="rect1664-6"
         style="display:none;opacity:0.0820379;fill:#008080;fill-opacity:0.984314;stroke:#008080;stroke-width:0;stroke-linejoin:round;stroke-miterlimit:4;stroke-dasharray:none;stroke-dashoffset:0;stroke-opacity:0.984314;paint-order:normal"
         clip-path="url(#clipPath1642)" />
      <path
         d="M 73.963873,75.700186 H 97.238092 V 98.974405 H 73.963873 Z m 1.161096,21.346292 v 11.091312 h 5.063423 V 97.046478 Z"
         class="powerclip"
         style="opacity:0.0820379;fill:#008080;fill-opacity:0.984314;stroke:#008080;stroke-width:0;stroke-linejoin:round;stroke-miterlimit:4;stroke-dasharray:none;stroke-dashoffset:0;stroke-opacity:0.984314;paint-order:normal"
         id="lpe_path-effect3121-2" />
    </clipPath>
    <clipPath
       id="clipath_lpe_path-effect1693"
       clipPathUnits="userSpaceOnUse">
      <rect
         clip-path="url(#clipPath1642)"
         style="display:block;opacity:0.0820379;fill:#008080;fill-opacity:0.984314;stroke:#008080;stroke-width:0;stroke-linejoin:round;stroke-miterlimit:4;stroke-dasharray:none;stroke-dashoffset:0;stroke-opacity:0.984314;paint-order:normal"
         id="rect1695"
         width="5.0634227"
         height="11.091309"
         x="75.124969"
         y="97.046478"
         transform="matrix(-0.19856136,1.4765072,-1.6700492,0.11996261,266.99705,-43.026513)" />
    </clipPath>
    <clipPath
       clipPathUnits="userSpaceOnUse"
       id="clipPath1662-3">
      <rect
         d="m 75.124969,97.046478 h 5.063423 v 11.091312 h -5.063423 z"
         transform="matrix(-0.19856136,1.4765072,-1.6700492,0.11996261,266.99705,-43.026513)"
         y="97.046478"
         x="75.124969"
         height="11.091309"
         width="5.0634227"
         id="rect1664-67"
         style="display:none;opacity:0.0820379;fill:#008080;fill-opacity:0.984314;stroke:#008080;stroke-width:0;stroke-linejoin:round;stroke-miterlimit:4;stroke-dasharray:none;stroke-dashoffset:0;stroke-opacity:0.984314;paint-order:normal"
         clip-path="url(#clipPath1642)" />
      <path
         id="lpe_path-effect3121-5"
         style="opacity:0.0820379;fill:#008080;fill-opacity:0.984314;stroke:#008080;stroke-width:0;stroke-linejoin:round;stroke-miterlimit:4;stroke-dasharray:none;stroke-dashoffset:0;stroke-opacity:0.984314;paint-order:normal"
         class="powerclip"
         d="M 73.963873,75.700186 H 97.238092 V 98.974405 H 73.963873 Z m 1.161096,21.346292 v 11.091312 h 5.063423 V 97.046478 Z" />
    </clipPath>
    <clipPath
       id="clipath_lpe_path-effect3349"
       clipPathUnits="userSpaceOnUse">
      <rect
         clip-path="url(#clipPath1642)"
         style="display:none;opacity:0.0820379;fill:#008080;fill-opacity:0.984314;stroke:#008080;stroke-width:0;stroke-linejoin:round;stroke-miterlimit:4;stroke-dasharray:none;stroke-dashoffset:0;stroke-opacity:0.984314;paint-order:normal"
         id="rect3351"
         width="5.0634227"
         height="11.091309"
         x="75.124969"
         y="97.046478"
         transform="matrix(-0.19856136,1.4765072,-1.6700492,0.11996261,266.99705,-43.026513)"
         d="m 75.124969,97.046478 h 5.063423 v 11.091312 h -5.063423 z" />
      <path
         d="M 73.963873,75.700186 H 97.238092 V 98.974405 H 73.963873 Z"
         class="powerclip"
         style="opacity:0.0820379;fill:#008080;fill-opacity:0.984314;stroke:#008080;stroke-width:0;stroke-linejoin:round;stroke-miterlimit:4;stroke-dasharray:none;stroke-dashoffset:0;stroke-opacity:0.984314;paint-order:normal"
         id="lpe_path-effect3349" />
    </clipPath>
    <clipPath
       clipPathUnits="userSpaceOnUse"
       id="clipPath3431">
      <rect
         d="M 2.6363044,114.4497 H 16.83767 v 4.87613 H 2.6363044 Z"
         transform="rotate(-40.114504)"
         y="114.4497"
         x="2.6363044"
         height="4.8761282"
         width="14.201365"
         id="rect3433"
         style="display:inline;opacity:1;fill:#008080;fill-opacity:0.984314;stroke:#008080;stroke-width:0;stroke-linejoin:round;stroke-miterlimit:4;stroke-dasharray:none;stroke-opacity:0.984314" />
    </clipPath>
    <filter
       inkscape:collect="always"
       style="color-interpolation-filters:sRGB"
       id="filter3530"
       x="-1.3914574e-09"
       width="1"
       y="-4.8007781e-10"
       height="1">
      <feGaussianBlur
         inkscape:collect="always"
         stdDeviation="1.094349e-08"
         id="feGaussianBlur3532" />
    </filter>
  </defs>
  <sodipodi:namedview
     id="base"
     pagecolor="#ffc299"
     bordercolor="#666666"
     borderopacity="1.0"
     inkscape:pageopacity="0"
     inkscape:pageshadow="2"
     inkscape:zoom="0.15328463"
     inkscape:cx="2180.4794"
     inkscape:cy="341.25096"
     inkscape:document-units="mm"
     inkscape:current-layer="layer2"
     showgrid="false"
     units="px"
     inkscape:document-rotation="0"
     inkscape:window-width="1600"
     inkscape:window-height="873"
     inkscape:window-x="0"
     inkscape:window-y="-10"
     inkscape:window-maximized="1" />
  <metadata
     id="metadata1686">
    <rdf:RDF>
      <cc:Work
         rdf:about="">
        <dc:format>image/svg+xml</dc:format>
        <dc:type
           rdf:resource="http://purl.org/dc/dcmitype/StillImage" />
        <dc:title></dc:title>
      </cc:Work>
    </rdf:RDF>
  </metadata>
  <g
     inkscape:label="Layer 1"
     inkscape:groupmode="layer"
     id="layer1"
     transform="translate(0,-164.70832)" />
  <g
     inkscape:groupmode="layer"
     id="layer2"
     inkscape:label="Layer 2"
     style="display:inline">
    <g
       id="g899"
       transform="translate(-9.3088603)">
      <path
         sodipodi:nodetypes="ccccc"
         inkscape:connector-curvature="0"
         id="rect5982"
         d="m 82.213711,174.83914 16.44351,112.59518 H 33.747986 L 50.191497,174.83914 Z"
         style="opacity:1;fill:#803300;fill-opacity:0.984314;stroke:#ff7f2a;stroke-width:8.87839;stroke-linejoin:round;stroke-miterlimit:10;stroke-dasharray:none;stroke-dashoffset:0;stroke-opacity:0.984314;paint-order:normal"
         transform="translate(0,-164.70832)" />
      <g
         style="fill:#002232;fill-opacity:0.984314;stroke:#002232;stroke-opacity:0.984314;filter:url(#filter3530)"
         id="g3520"
         transform="translate(0,-164.70832)">
        <rect
           style="opacity:1;fill:#002232;fill-opacity:0.984314;stroke:#002232;stroke-width:1;stroke-linejoin:round;stroke-miterlimit:4;stroke-dasharray:none;stroke-opacity:0.984314"
           id="rect3437"
           width="4.0392656"
           height="54.708584"
           x="64.670502"
           y="183.63611" />
        <rect
           y="-76.241333"
           x="190.07324"
           height="18.662912"
           width="1.299078"
           id="rect3437-9"
           style="opacity:1;fill:#002232;fill-opacity:0.984314;stroke:#002232;stroke-width:1;stroke-linejoin:round;stroke-miterlimit:4;stroke-dasharray:none;stroke-opacity:0.984314"
           transform="rotate(90)" />
        <rect
           transform="rotate(90)"
           style="opacity:1;fill:#002232;fill-opacity:0.984314;stroke:#002232;stroke-width:1;stroke-linejoin:round;stroke-miterlimit:4;stroke-dasharray:none;stroke-opacity:0.984314"
           id="rect3437-9-1"
           width="1.299078"
           height="18.662912"
           x="199.39975"
           y="-76.137413" />
        <rect
           y="-76.028801"
           x="208.99728"
           height="18.662912"
           width="1.299078"
           id="rect3437-9-1-2"
           style="opacity:1;fill:#002232;fill-opacity:0.984314;stroke:#002232;stroke-width:1;stroke-linejoin:round;stroke-miterlimit:4;stroke-dasharray:none;stroke-opacity:0.984314"
           transform="rotate(90)" />
        <rect
           transform="rotate(90)"
           style="opacity:1;fill:#002232;fill-opacity:0.984314;stroke:#002232;stroke-width:1;stroke-linejoin:round;stroke-miterlimit:4;stroke-dasharray:none;stroke-opacity:0.984314"
           id="rect3437-9-1-2-7"
           width="1.299078"
           height="18.662912"
           x="218.77837"
           y="-76.075851" />
        <rect
           y="-76.060532"
           x="228.23026"
           height="18.662912"
           width="1.299078"
           id="rect3437-9-1-2-7-0"
           style="opacity:1;fill:#002232;fill-opacity:0.984314;stroke:#002232;stroke-width:1;stroke-linejoin:round;stroke-miterlimit:4;stroke-dasharray:none;stroke-opacity:0.984314"
           transform="rotate(90)" />
      </g>
      <circle
         style="fill:none;stroke:#44aa00;stroke-width:2.66487;stroke-linejoin:round;stroke-opacity:0.984314"
         id="path880"
         cx="66.594124"
         cy="266.04865"
         r="14.859026"
         transform="translate(0,-164.70832)" />
      <rect
         transform="rotate(-90)"
         ry="2.0743594"
         y="64.673912"
         x="-112.83018"
         height="4.1487188"
         width="16.155275"
         id="rect1589-3"
         style="fill:#44a900;fill-opacity:1;stroke:#000000;stroke-width:0;stroke-linejoin:round;stroke-miterlimit:4;stroke-dasharray:none;stroke-dashoffset:0;stroke-opacity:0.984314;paint-order:normal" />
      <path
         id="rect5992"
         d="m 41.539583,78.713539 h 48.021874 c 0.07329,0 0.132291,0.059 0.132291,0.132292 0,0.07329 -0.059,0.132291 -0.132291,0.132291 H 41.539583 c -0.07329,0 -0.132292,-0.059 -0.132292,-0.132291 0,-0.07329 0.059,-0.132292 0.132292,-0.132292 z"
         style="opacity:1;fill:#ff7f2a;fill-opacity:0.984314;stroke:#ff7f2a;stroke-width:10;stroke-linejoin:round;stroke-miterlimit:10;stroke-dasharray:none;stroke-dashoffset:0;stroke-opacity:0.984314;paint-order:normal" />
      <path
         clip-path="url(#clipPath1662)"
         id="path5997"
         style="opacity:1;fill:none;fill-opacity:1;stroke:#ff7f2a;stroke-width:10;stroke-linejoin:round;stroke-miterlimit:10;stroke-dasharray:none;stroke-dashoffset:0;stroke-opacity:1;paint-order:normal"
         d="m 87.238092,87.337296 a 1.6371094,1.6371094 0 0 1 -1.637109,1.637109 1.6371094,1.6371094 0 0 1 -1.63711,-1.637109 1.6371094,1.6371094 0 0 1 1.63711,-1.63711 1.6371094,1.6371094 0 0 1 1.637109,1.63711 z"
         sodipodi:type="arc"
         sodipodi:ry="1.6371094"
         sodipodi:rx="1.6371094"
         sodipodi:cy="87.337296"
         sodipodi:cx="85.600983"
         inkscape:path-effect="#path-effect3121" />
      <path
         d="m 87.238092,87.337296 a 1.6371094,1.6371094 0 0 1 -1.637109,1.637109 1.6371094,1.6371094 0 0 1 -1.63711,-1.637109 1.6371094,1.6371094 0 0 1 1.63711,-1.63711 1.6371094,1.6371094 0 0 1 1.637109,1.63711 z"
         transform="translate(-38.817534,0.02593138)"
         inkscape:path-effect="#path-effect3349"
         sodipodi:cx="85.600983"
         sodipodi:cy="87.337296"
         sodipodi:rx="1.6371094"
         sodipodi:ry="1.6371094"
         sodipodi:type="arc"
         style="display:inline;opacity:1;fill:#ff7f2a;fill-opacity:1;stroke:#ff7f2a;stroke-width:10;stroke-linejoin:round;stroke-miterlimit:10;stroke-dasharray:none;stroke-dashoffset:0;stroke-opacity:1;paint-order:normal"
         id="path5997-3"
         clip-path="url(#clipPath3431)" />
      <ellipse
         style="fill:#44a900;fill-opacity:1;stroke:#44aa00;stroke-width:0;stroke-linejoin:round;stroke-miterlimit:4;stroke-dasharray:none;stroke-opacity:0.984314"
         id="path901"
         cx="66.748497"
         cy="92.230713"
         rx="2.0744996"
         ry="2.031822" />
    </g>
    <g
       style="font-style:normal;font-variant:normal;font-weight:bold;font-stretch:normal;font-size:105.833px;line-height:1.25;font-family:'Gothic Uralic';-inkscape-font-specification:'Gothic Uralic Bold';letter-spacing:0px;word-spacing:0px;display:inline;fill:#fff6e1;fill-opacity:1;stroke:none;stroke-width:0.264583"
       id="text902"
       aria-label="What's this?">
      <path
         id="path879"
         style="font-style:normal;font-variant:normal;font-weight:bold;font-stretch:normal;font-family:'Gothic Uralic';-inkscape-font-specification:'Gothic Uralic Bold';fill:#fff6e1;fill-opacity:1;stroke-width:0.264583"
         d="M 217.66597,29.269149 194.80604,107.47974 H 183.27025 L 170.67612,55.727399 157.76449,107.47974 H 146.33453 L 123.36877,29.269149 h 14.81662 l 13.75829,54.609828 13.33496,-54.609828 h 10.5833 l 13.12329,54.609828 13.86412,-54.609828 z" />
      <path
         id="path881"
         style="font-style:normal;font-variant:normal;font-weight:bold;font-stretch:normal;font-family:'Gothic Uralic';-inkscape-font-specification:'Gothic Uralic Bold';fill:#fff6e1;fill-opacity:1;stroke-width:0.264583"
         d="M 275.59796,107.47974 H 261.52217 V 77.528997 q 0,-7.937475 -1.79916,-11.747463 -2.64582,-5.397483 -9.6308,-5.397483 -10.2658,0 -11.95913,10.265801 -0.42333,2.539992 -0.42333,7.090811 V 107.47974 H 223.63396 V 29.269149 h 14.07579 v 23.600759 q 6.13831,-5.503316 14.92245,-5.503316 8.36081,0 14.18162,4.127487 6.03248,4.444986 7.93748,12.382461 0.84666,4.021654 0.84666,10.477467 z" />
      <path
         id="path883"
         style="font-style:normal;font-variant:normal;font-weight:bold;font-stretch:normal;font-family:'Gothic Uralic';-inkscape-font-specification:'Gothic Uralic Bold';fill:#fff6e1;fill-opacity:1;stroke-width:0.264583"
         d="M 346.46473,107.47974 H 333.5531 v -7.61998 q -7.72581,8.67831 -19.47327,8.67831 -13.12329,0 -21.37827,-8.46664 -8.14914,-8.466644 -8.14914,-21.695769 0,-13.229125 8.36081,-22.013264 8.36081,-8.889972 21.4841,-8.889972 12.17079,0 19.15577,9.207471 v -7.831642 h 12.91163 z M 333.12977,78.587327 q 0,-7.831642 -4.76248,-13.017459 -4.76249,-5.185817 -12.4883,-5.185817 -7.72581,0 -12.48829,5.29165 -4.65665,5.29165 -4.65665,13.017459 0,7.619976 4.86831,12.488294 4.86832,4.762485 12.4883,4.762485 12.06496,0 15.87495,-10.900799 1.16416,-3.280823 1.16416,-6.455813 z" />
      <path
         id="path885"
         style="font-style:normal;font-variant:normal;font-weight:bold;font-stretch:normal;font-family:'Gothic Uralic';-inkscape-font-specification:'Gothic Uralic Bold';fill:#fff6e1;fill-opacity:1;stroke-width:0.264583"
         d="m 381.61782,61.654047 h -8.46664 V 107.47974 H 359.07539 V 61.654047 h -6.87914 V 48.848254 h 6.87914 V 29.269149 h 14.07579 v 19.579105 h 8.46664 z" />
      <path
         id="path887"
         style="font-style:normal;font-variant:normal;font-weight:bold;font-stretch:normal;font-family:'Gothic Uralic';-inkscape-font-specification:'Gothic Uralic Bold';fill:#fff6e1;fill-opacity:1;stroke-width:0.264583"
         d="m 398.95128,53.187407 h -8.04331 V 29.269149 h 8.04331 z" />
      <path
         id="path889"
         style="font-style:normal;font-variant:normal;font-weight:bold;font-stretch:normal;font-family:'Gothic Uralic';-inkscape-font-specification:'Gothic Uralic Bold';fill:#fff6e1;fill-opacity:1;stroke-width:0.264583"
         d="m 450.88386,88.853128 q 0,8.784139 -6.13832,14.287452 -6.03248,5.39749 -14.81662,5.39749 -6.87914,0 -12.27662,-3.17499 -5.92665,-3.49249 -7.83165,-9.630807 -0.84666,-2.539992 -1.37582,-6.879145 h 14.18162 q 2.01082,7.090811 7.83164,7.090811 2.64582,0 4.44499,-1.587495 1.90499,-1.587495 1.90499,-4.127487 0,-3.809988 -6.77331,-6.455813 -10.79497,-4.127487 -12.69996,-5.397483 -6.77331,-4.550819 -6.77331,-13.017459 0,-7.725809 5.82081,-12.805793 5.82082,-5.079984 13.65246,-5.079984 5.82081,0 10.9008,3.069157 5.18581,3.069157 7.19664,8.254974 0.9525,2.539992 1.16416,6.244147 h -13.75829 q -0.95249,-4.656652 -5.50331,-4.656652 -2.2225,0 -3.80999,1.375829 -1.5875,1.375829 -1.5875,3.598322 0,2.645825 2.8575,3.915821 1.90499,0.846664 7.09081,2.434159 7.93747,2.434159 11.53579,5.609149 4.76249,4.23332 4.76249,11.535797 z" />
      <path
         id="path891"
         style="font-style:normal;font-variant:normal;font-weight:bold;font-stretch:normal;font-family:'Gothic Uralic';-inkscape-font-specification:'Gothic Uralic Bold';fill:#fff6e1;fill-opacity:1;stroke-width:0.264583"
         d="M 512.87554,61.654047 H 504.4089 V 107.47974 H 490.33311 V 61.654047 h -6.87914 V 48.848254 h 6.87914 V 29.269149 h 14.07579 v 19.579105 h 8.46664 z" />
      <path
         id="path893"
         style="font-style:normal;font-variant:normal;font-weight:bold;font-stretch:normal;font-family:'Gothic Uralic';-inkscape-font-specification:'Gothic Uralic Bold';fill:#fff6e1;fill-opacity:1;stroke-width:0.264583"
         d="M 572.01304,107.47974 H 557.93725 V 77.528997 q 0,-7.937475 -1.79916,-11.747463 -2.64583,-5.397483 -9.6308,-5.397483 -10.26581,0 -11.95913,10.265801 -0.42334,2.539992 -0.42334,7.090811 V 107.47974 H 520.04904 V 29.269149 h 14.07578 v 23.600759 q 6.13832,-5.503316 14.92246,-5.503316 8.3608,0 14.18162,4.127487 6.03248,4.444986 7.93747,12.382461 0.84667,4.021654 0.84667,10.477467 z" />
      <path
         id="path895"
         style="font-style:normal;font-variant:normal;font-weight:bold;font-stretch:normal;font-family:'Gothic Uralic';-inkscape-font-specification:'Gothic Uralic Bold';fill:#fff6e1;fill-opacity:1;stroke-width:0.264583"
         d="M 597.58329,42.498274 H 583.5075 V 29.269149 h 14.07579 z m 0,64.981466 H 583.5075 V 48.848254 h 14.07579 z" />
      <path
         id="path897"
         style="font-style:normal;font-variant:normal;font-weight:bold;font-stretch:normal;font-family:'Gothic Uralic';-inkscape-font-specification:'Gothic Uralic Bold';fill:#fff6e1;fill-opacity:1;stroke-width:0.264583"
         d="m 647.66709,88.853128 q 0,8.784139 -6.13831,14.287452 -6.03248,5.39749 -14.81662,5.39749 -6.87915,0 -12.27663,-3.17499 -5.92665,-3.49249 -7.83164,-9.630807 -0.84667,-2.539992 -1.37583,-6.879145 h 14.18162 q 2.01083,7.090811 7.83164,7.090811 2.64583,0 4.44499,-1.587495 1.90499,-1.587495 1.90499,-4.127487 0,-3.809988 -6.77331,-6.455813 -10.79497,-4.127487 -12.69996,-5.397483 -6.77331,-4.550819 -6.77331,-13.017459 0,-7.725809 5.82081,-12.805793 5.82082,-5.079984 13.65246,-5.079984 5.82082,0 10.9008,3.069157 5.18582,3.069157 7.19664,8.254974 0.9525,2.539992 1.16417,6.244147 h -13.75829 q -0.9525,-4.656652 -5.50332,-4.656652 -2.22249,0 -3.80999,1.375829 -1.58749,1.375829 -1.58749,3.598322 0,2.645825 2.85749,3.915821 1.90499,0.846664 7.09081,2.434159 7.93747,2.434159 11.5358,5.609149 4.76248,4.23332 4.76248,11.535797 z" />
      <path
         id="path899"
         style="font-style:normal;font-variant:normal;font-weight:bold;font-stretch:normal;font-family:'Gothic Uralic';-inkscape-font-specification:'Gothic Uralic Bold';fill:#fff6e1;fill-opacity:1;stroke-width:0.264583"
         d="m 701.0549,52.129077 q 0,5.926648 -3.06915,10.689133 -2.32833,3.598322 -7.72581,8.254974 -4.44499,3.915821 -5.60915,6.667479 -1.27,3.069157 -1.27,9.948302 H 669.305 q 0,-9.948302 2.54,-15.239952 1.37582,-3.069157 3.91582,-5.820815 3.49249,-3.280823 7.09081,-6.561646 4.12748,-4.021654 4.12748,-8.360807 0,-4.444986 -2.85749,-7.090811 -2.75165,-2.751658 -7.19664,-2.751658 -8.36081,0 -9.73664,10.5833 h -14.07579 q 0.42334,-5.397483 1.5875,-8.889972 2.43416,-7.090811 8.67831,-11.324131 6.24414,-4.339153 13.86412,-4.339153 10.2658,0 17.03911,6.984978 6.77331,6.984978 6.77331,17.250779 z M 683.38079,107.47974 H 669.305 V 93.933112 h 14.07579 z" />
    </g>
  </g>
</svg>
