<?xml version="1.0" encoding="UTF-8" standalone="no"?>
<svg
   xmlns:dc="http://purl.org/dc/elements/1.1/"
   xmlns:cc="http://creativecommons.org/ns#"
   xmlns:rdf="http://www.w3.org/1999/02/22-rdf-syntax-ns#"
   xmlns:svg="http://www.w3.org/2000/svg"
   xmlns="http://www.w3.org/2000/svg"
   xmlns:sodipodi="http://sodipodi.sourceforge.net/DTD/sodipodi-0.dtd"
   xmlns:inkscape="http://www.inkscape.org/namespaces/inkscape"
   sodipodi:docname="safari-pinned-tab.svg"
   inkscape:version="1.0.1 (3bc2e813f5, 2020-09-07)"
   id="svg907"
   version="1.1"
   viewBox="0 0 132.29167 132.29167"
   height="500"
   width="500">
  <defs
     id="defs901" />
  <sodipodi:namedview
     inkscape:window-maximized="0"
     inkscape:window-y="36"
     inkscape:window-x="0"
     inkscape:window-height="2074"
     inkscape:window-width="3830"
     inkscape:lockguides="false"
     units="px"
     showgrid="false"
     inkscape:document-rotation="0"
     inkscape:current-layer="layer2"
     inkscape:document-units="px"
     inkscape:cy="297.04064"
     inkscape:cx="262.96086"
     inkscape:zoom="2.1214014"
     inkscape:pageshadow="2"
     inkscape:pageopacity="0.0"
     borderopacity="1.0"
     bordercolor="#666666"
     pagecolor="#ffffff"
     id="base" />
  <metadata
     id="metadata904">
    <rdf:RDF>
      <cc:Work
         rdf:about="">
        <dc:format>image/svg+xml</dc:format>
        <dc:type
           rdf:resource="http://purl.org/dc/dcmitype/StillImage" />
        <dc:title />
      </cc:Work>
    </rdf:RDF>
  </metadata>
  <g
     inkscape:groupmode="layer"
     id="layer2"
     inkscape:label="Layer 2">
    <path
       id="path922"
       style="fill:#000000;fill-opacity:1;stroke-width:1.96899"
       d="M 249.56836 0 A 250.20471 250.20471 0 0 0 0 250.20508 A 250.20471 250.20471 0 0 0 250.20508 500.41016 A 250.20471 250.20471 0 0 0 500.41016 250.20508 A 250.20471 250.20471 0 0 0 250.20508 0 A 250.20471 250.20471 0 0 0 249.56836 0 z M 337.02148 78 C 338.23547 80.099002 339.51018 82.16022 340.82617 84.199219 C 330.20317 91.71422 320.0488 99.873952 310.8418 109.00195 C 306.05983 113.74395 301.52832 118.80722 297.65234 124.32422 C 295.44034 127.47522 283.6692 144.80908 290.49219 165.58008 C 294.14321 176.69208 298.90883 187.42902 302.88281 198.41602 C 305.84781 206.61601 308.20165 214.96723 310.01367 223.49023 C 311.82565 232.01023 312.65065 240.86002 313.00781 249.54102 C 314.05981 274.95501 309.11627 300.60119 296.78125 322.99219 C 284.99026 344.39817 267.2796 361.98058 246.68359 374.97656 C 226.06959 387.98658 203.06208 396.76323 179.45508 402.57422 C 177.322 403.0552 176.19181 400.17857 160 325.46289 C 161.114 325.36587 162.2278 325.26545 163.3418 325.14844 C 186.74079 322.73844 211.5398 316.74401 230.25586 301.75 C 238.44288 295.19 245.06029 286.89066 249.44727 277.34766 C 254.16427 267.08366 255.81783 255.77884 256.96484 244.58984 C 257.3307 241.01585 257.13647 232.76546 257.12891 232.68945 C 257.14024 232.70045 257.14232 232.71434 257.13477 232.73438 C 256.92077 230.10738 256.72524 227.47923 256.40625 224.86523 C 255.66626 219.05923 254.45749 213.32748 253.0625 207.64648 C 250.16647 195.85748 245.46603 184.28309 245.08203 172.12109 C 243.16604 111.45209 321.74248 83.989999 337.02148 78 z "
       transform="scale(0.26458334)" />
  </g>
  <g
     id="layer1"
     inkscape:groupmode="layer"
     inkscape:label="Layer 1" />
</svg>
