<?xml version="1.0" encoding="UTF-8" standalone="no"?>
<svg
   xmlns:dc="http://purl.org/dc/elements/1.1/"
   xmlns:cc="http://creativecommons.org/ns#"
   xmlns:rdf="http://www.w3.org/1999/02/22-rdf-syntax-ns#"
   xmlns:svg="http://www.w3.org/2000/svg"
   xmlns="http://www.w3.org/2000/svg"
   xmlns:sodipodi="http://sodipodi.sourceforge.net/DTD/sodipodi-0.dtd"
   xmlns:inkscape="http://www.inkscape.org/namespaces/inkscape"
   width="424.7858"
   height="68.939911"
   viewBox="0 0 112.39125 18.240352"
   version="1.1"
   id="svg8"
   inkscape:version="1.0rc1 (c991b8df87, 2020-04-22)"
   sodipodi:docname="sharesessiontext.svg">
  <defs
     id="defs2" />
  <sodipodi:namedview
     units="px"
     lock-margins="true"
     id="base"
     pagecolor="#ffffff"
     bordercolor="#666666"
     borderopacity="1.0"
     inkscape:pageopacity="0.0"
     inkscape:pageshadow="2"
     inkscape:zoom="1.7305166"
     inkscape:cx="261.64146"
     inkscape:cy="103.02175"
     inkscape:document-units="mm"
     inkscape:current-layer="layer1"
     inkscape:document-rotation="0"
     showgrid="false"
     fit-margin-top="20"
     fit-margin-left="20"
     fit-margin-right="20"
     fit-margin-bottom="20"
     inkscape:window-width="1600"
     inkscape:window-height="873"
     inkscape:window-x="0"
     inkscape:window-y="-10"
     inkscape:window-maximized="1" />
  <metadata
     id="metadata5">
    <rdf:RDF>
      <cc:Work
         rdf:about="">
        <dc:format>image/svg+xml</dc:format>
        <dc:type
           rdf:resource="http://purl.org/dc/dcmitype/StillImage" />
        <dc:title></dc:title>
      </cc:Work>
    </rdf:RDF>
  </metadata>
  <g
     inkscape:label="Layer 1"
     inkscape:groupmode="layer"
     id="layer1"
     transform="translate(-4.4193576,-11.793829)">
    <g
       aria-label="SHARE THIS SESSION"
       id="text835"
       style="font-style:normal;font-variant:normal;font-weight:300;font-stretch:normal;font-size:10.5833px;line-height:1.25;font-family:Lato;-inkscape-font-specification:'Lato Light';letter-spacing:0px;word-spacing:0px;stroke-width:0.264583">
      <path
         d="m 13.981386,18.080326 q -0.04763,0.08996 -0.137583,0.08996 -0.06879,0 -0.179916,-0.09525 -0.105833,-0.100541 -0.291041,-0.216958 -0.185208,-0.121708 -0.465665,-0.222249 -0.275166,-0.100541 -0.682623,-0.100541 -0.407457,0 -0.719664,0.116416 -0.306916,0.116416 -0.518582,0.317499 -0.206374,0.201083 -0.317499,0.465665 -0.105833,0.264583 -0.105833,0.555623 0,0.380999 0.158749,0.629707 0.164042,0.248707 0.428624,0.423332 0.264583,0.174624 0.597956,0.296332 0.338666,0.116416 0.693207,0.232833 0.35454,0.116416 0.687914,0.259291 0.338666,0.137583 0.603248,0.349249 0.264583,0.211666 0.423332,0.523873 0.164041,0.306916 0.164041,0.767289 0,0.470957 -0.164041,0.888997 -0.158749,0.412749 -0.465665,0.719665 -0.306916,0.306915 -0.751414,0.486831 -0.444499,0.174625 -1.015997,0.174625 -0.740831,0 -1.275288,-0.259291 Q 10.11319,24.21864 9.7110243,23.763558 l 0.1481662,-0.232833 q 0.0635,-0.07937 0.1481665,-0.07937 0.04763,0 0.121708,0.0635 0.07408,0.0635 0.179916,0.15875 0.105833,0.08996 0.253999,0.201082 0.148166,0.105833 0.343957,0.201083 0.195791,0.08996 0.44979,0.153458 0.254,0.0635 0.57679,0.0635 0.444499,0 0.793748,-0.132292 0.349249,-0.137583 0.587373,-0.370415 0.243416,-0.232833 0.370415,-0.550332 0.127,-0.32279 0.127,-0.687914 0,-0.396874 -0.164041,-0.650873 -0.15875,-0.259291 -0.423332,-0.428624 -0.264583,-0.174624 -0.603248,-0.29104 -0.333374,-0.116417 -0.687915,-0.227541 -0.35454,-0.111125 -0.693206,-0.248708 -0.333374,-0.137583 -0.597956,-0.349249 -0.264583,-0.216957 -0.428624,-0.534456 -0.158749,-0.322791 -0.158749,-0.804331 0,-0.375707 0.142874,-0.724956 0.142875,-0.349249 0.41804,-0.613832 0.275166,-0.269874 0.677332,-0.428623 0.407457,-0.164041 0.926038,-0.164041 0.582082,0 1.042455,0.185207 0.465666,0.185208 0.846664,0.566207 z"
         style="font-style:normal;font-variant:normal;font-weight:300;font-stretch:normal;font-family:Lato;-inkscape-font-specification:'Lato Light';stroke-width:0.264583"
         id="path855" />
      <path
         d="m 21.788223,24.657846 h -0.54504 v -3.587738 h -4.688402 v 3.587738 h -0.54504 v -7.487684 h 0.54504 v 3.492489 h 4.688402 v -3.492489 h 0.54504 z"
         style="font-style:normal;font-variant:normal;font-weight:300;font-stretch:normal;font-family:Lato;-inkscape-font-specification:'Lato Light';stroke-width:0.264583"
         id="path857" />
      <path
         d="m 29.703044,24.657846 h -0.418041 q -0.07408,0 -0.121708,-0.03704 -0.04763,-0.04233 -0.07408,-0.105833 l -0.878414,-2.174868 h -3.677696 l -0.878414,2.174868 q -0.02117,0.05821 -0.07408,0.100541 -0.05292,0.04233 -0.127,0.04233 h -0.412749 l 3.063866,-7.487684 h 0.534456 z m -5.011193,-2.719908 h 3.354906 l -1.523995,-3.783529 q -0.07937,-0.185208 -0.153458,-0.444499 -0.03704,0.127 -0.07408,0.243416 -0.03704,0.116416 -0.07408,0.206374 z"
         style="font-style:normal;font-variant:normal;font-weight:300;font-stretch:normal;font-family:Lato;-inkscape-font-specification:'Lato Light';stroke-width:0.264583"
         id="path859" />
      <path
         d="m 31.499558,21.271191 v 3.386655 h -0.54504 v -7.487684 h 1.915577 q 1.291163,0 1.931452,0.502707 0.645582,0.497415 0.645582,1.465787 0,0.428623 -0.153458,0.783164 -0.148166,0.35454 -0.428624,0.624415 -0.275166,0.264582 -0.672039,0.439206 -0.391582,0.169333 -0.878414,0.22225 0.126999,0.07937 0.227541,0.211666 l 2.577033,3.238489 h -0.465665 q -0.08996,0 -0.153458,-0.02646 -0.05821,-0.03175 -0.111124,-0.111124 l -2.402409,-3.037407 q -0.04233,-0.05821 -0.08996,-0.100542 -0.04233,-0.04233 -0.100541,-0.0635 -0.05292,-0.02646 -0.132291,-0.03704 -0.07408,-0.01058 -0.185208,-0.01058 z m 0,-0.402166 h 1.296454 q 0.497415,0 0.888997,-0.116416 0.396874,-0.121708 0.666748,-0.343957 0.275166,-0.22225 0.418041,-0.534457 0.142874,-0.312207 0.142874,-0.703789 0,-0.79904 -0.523873,-1.18533 -0.518582,-0.38629 -1.518704,-0.38629 h -1.370537 z"
         style="font-style:normal;font-variant:normal;font-weight:300;font-stretch:normal;font-family:Lato;-inkscape-font-specification:'Lato Light';stroke-width:0.264583"
         id="path861" />
      <path
         d="m 41.870365,17.170162 v 0.44979 h -3.942279 v 3.026824 h 3.280823 v 0.439207 h -3.280823 v 3.122073 h 3.952862 l -0.01058,0.44979 h -4.487319 v -7.487684 z"
         style="font-style:normal;font-variant:normal;font-weight:300;font-stretch:normal;font-family:Lato;-inkscape-font-specification:'Lato Light';stroke-width:0.264583"
         id="path863" />
      <path
         d="m 50.953648,17.170162 v 0.460373 h -2.62995 v 7.027311 h -0.54504 v -7.027311 h -2.645825 v -0.460373 z"
         style="font-style:normal;font-variant:normal;font-weight:300;font-stretch:normal;font-family:Lato;-inkscape-font-specification:'Lato Light';stroke-width:0.264583"
         id="path865" />
      <path
         d="m 57.982281,24.657846 h -0.54504 v -3.587738 h -4.688402 v 3.587738 h -0.54504 v -7.487684 h 0.54504 v 3.492489 h 4.688402 v -3.492489 h 0.54504 z"
         style="font-style:normal;font-variant:normal;font-weight:300;font-stretch:normal;font-family:Lato;-inkscape-font-specification:'Lato Light';stroke-width:0.264583"
         id="path867" />
      <path
         d="m 60.748328,24.657846 h -0.54504 v -7.487684 h 0.54504 z"
         style="font-style:normal;font-variant:normal;font-weight:300;font-stretch:normal;font-family:Lato;-inkscape-font-specification:'Lato Light';stroke-width:0.264583"
         id="path869" />
      <path
         d="m 66.587827,18.080326 q -0.04763,0.08996 -0.137583,0.08996 -0.06879,0 -0.179916,-0.09525 -0.105833,-0.100541 -0.291041,-0.216958 -0.185207,-0.121708 -0.465665,-0.222249 -0.275165,-0.100541 -0.682623,-0.100541 -0.407457,0 -0.719664,0.116416 -0.306916,0.116416 -0.518582,0.317499 -0.206374,0.201083 -0.317499,0.465665 -0.105833,0.264583 -0.105833,0.555623 0,0.380999 0.15875,0.629707 0.164041,0.248707 0.428624,0.423332 0.264582,0.174624 0.597956,0.296332 0.338666,0.116416 0.693206,0.232833 0.354541,0.116416 0.687915,0.259291 0.338665,0.137583 0.603248,0.349249 0.264582,0.211666 0.423332,0.523873 0.164041,0.306916 0.164041,0.767289 0,0.470957 -0.164041,0.888997 -0.15875,0.412749 -0.465666,0.719665 -0.306915,0.306915 -0.751414,0.486831 -0.444498,0.174625 -1.015997,0.174625 -0.740831,0 -1.275287,-0.259291 -0.534457,-0.264582 -0.936622,-0.719664 l 0.148166,-0.232833 q 0.0635,-0.07937 0.148166,-0.07937 0.04762,0 0.121708,0.0635 0.07408,0.0635 0.179916,0.15875 0.105833,0.08996 0.253999,0.201082 0.148167,0.105833 0.343958,0.201083 0.195791,0.08996 0.44979,0.153458 0.253999,0.0635 0.57679,0.0635 0.444498,0 0.793747,-0.132292 0.349249,-0.137583 0.587373,-0.370415 0.243416,-0.232833 0.370416,-0.550332 0.126999,-0.32279 0.126999,-0.687914 0,-0.396874 -0.164041,-0.650873 -0.158749,-0.259291 -0.423332,-0.428624 -0.264582,-0.174624 -0.603248,-0.29104 -0.333374,-0.116417 -0.687914,-0.227541 -0.354541,-0.111125 -0.693206,-0.248708 -0.333374,-0.137583 -0.597957,-0.349249 -0.264582,-0.216957 -0.428623,-0.534456 -0.15875,-0.322791 -0.15875,-0.804331 0,-0.375707 0.142875,-0.724956 0.142874,-0.349249 0.41804,-0.613832 0.275166,-0.269874 0.677331,-0.428623 0.407457,-0.164041 0.926039,-0.164041 0.582081,0 1.042455,0.185207 0.465665,0.185208 0.846664,0.566207 z"
         style="font-style:normal;font-variant:normal;font-weight:300;font-stretch:normal;font-family:Lato;-inkscape-font-specification:'Lato Light';stroke-width:0.264583"
         id="path871" />
      <path
         d="m 75.124746,18.080326 q -0.04762,0.08996 -0.137583,0.08996 -0.06879,0 -0.179916,-0.09525 -0.105833,-0.100541 -0.291041,-0.216958 -0.185208,-0.121708 -0.465665,-0.222249 -0.275166,-0.100541 -0.682623,-0.100541 -0.407457,0 -0.719664,0.116416 -0.306916,0.116416 -0.518582,0.317499 -0.206374,0.201083 -0.317499,0.465665 -0.105833,0.264583 -0.105833,0.555623 0,0.380999 0.15875,0.629707 0.164041,0.248707 0.428623,0.423332 0.264583,0.174624 0.597957,0.296332 0.338665,0.116416 0.693206,0.232833 0.35454,0.116416 0.687914,0.259291 0.338666,0.137583 0.603248,0.349249 0.264583,0.211666 0.423332,0.523873 0.164041,0.306916 0.164041,0.767289 0,0.470957 -0.164041,0.888997 -0.158749,0.412749 -0.465665,0.719665 -0.306916,0.306915 -0.751414,0.486831 -0.444499,0.174625 -1.015997,0.174625 -0.740831,0 -1.275288,-0.259291 -0.534456,-0.264582 -0.936622,-0.719664 l 0.148167,-0.232833 q 0.0635,-0.07937 0.148166,-0.07937 0.04762,0 0.121708,0.0635 0.07408,0.0635 0.179916,0.15875 0.105833,0.08996 0.253999,0.201082 0.148166,0.105833 0.343957,0.201083 0.195791,0.08996 0.449791,0.153458 0.253999,0.0635 0.576789,0.0635 0.444499,0 0.793748,-0.132292 0.349249,-0.137583 0.587373,-0.370415 0.243416,-0.232833 0.370415,-0.550332 0.127,-0.32279 0.127,-0.687914 0,-0.396874 -0.164041,-0.650873 -0.15875,-0.259291 -0.423332,-0.428624 -0.264583,-0.174624 -0.603248,-0.29104 -0.333374,-0.116417 -0.687915,-0.227541 -0.35454,-0.111125 -0.693206,-0.248708 -0.333374,-0.137583 -0.597956,-0.349249 -0.264583,-0.216957 -0.428624,-0.534456 -0.158749,-0.322791 -0.158749,-0.804331 0,-0.375707 0.142874,-0.724956 0.142875,-0.349249 0.418041,-0.613832 0.275165,-0.269874 0.677331,-0.428623 0.407457,-0.164041 0.926038,-0.164041 0.582082,0 1.042455,0.185207 0.465666,0.185208 0.846664,0.566207 z"
         style="font-style:normal;font-variant:normal;font-weight:300;font-stretch:normal;font-family:Lato;-inkscape-font-specification:'Lato Light';stroke-width:0.264583"
         id="path873" />
      <path
         d="m 81.640424,17.170162 v 0.44979 h -3.942279 v 3.026824 h 3.280823 v 0.439207 h -3.280823 v 3.122073 h 3.952863 l -0.01058,0.44979 h -4.487319 v -7.487684 z"
         style="font-style:normal;font-variant:normal;font-weight:300;font-stretch:normal;font-family:Lato;-inkscape-font-specification:'Lato Light';stroke-width:0.264583"
         id="path875" />
      <path
         d="m 86.927606,18.080326 q -0.04762,0.08996 -0.137583,0.08996 -0.06879,0 -0.179916,-0.09525 -0.105833,-0.100541 -0.291041,-0.216958 -0.185207,-0.121708 -0.465665,-0.222249 -0.275166,-0.100541 -0.682623,-0.100541 -0.407457,0 -0.719664,0.116416 -0.306916,0.116416 -0.518582,0.317499 -0.206374,0.201083 -0.317499,0.465665 -0.105833,0.264583 -0.105833,0.555623 0,0.380999 0.15875,0.629707 0.164041,0.248707 0.428623,0.423332 0.264583,0.174624 0.597957,0.296332 0.338665,0.116416 0.693206,0.232833 0.354541,0.116416 0.687914,0.259291 0.338666,0.137583 0.603249,0.349249 0.264582,0.211666 0.423332,0.523873 0.164041,0.306916 0.164041,0.767289 0,0.470957 -0.164041,0.888997 -0.15875,0.412749 -0.465666,0.719665 -0.306915,0.306915 -0.751414,0.486831 -0.444498,0.174625 -1.015997,0.174625 -0.740831,0 -1.275287,-0.259291 -0.534457,-0.264582 -0.936622,-0.719664 l 0.148166,-0.232833 q 0.0635,-0.07937 0.148166,-0.07937 0.04763,0 0.121708,0.0635 0.07408,0.0635 0.179916,0.15875 0.105833,0.08996 0.253999,0.201082 0.148167,0.105833 0.343958,0.201083 0.195791,0.08996 0.44979,0.153458 0.253999,0.0635 0.57679,0.0635 0.444498,0 0.793747,-0.132292 0.349249,-0.137583 0.587373,-0.370415 0.243416,-0.232833 0.370416,-0.550332 0.126999,-0.32279 0.126999,-0.687914 0,-0.396874 -0.164041,-0.650873 -0.158749,-0.259291 -0.423332,-0.428624 -0.264582,-0.174624 -0.603248,-0.29104 -0.333374,-0.116417 -0.687914,-0.227541 -0.354541,-0.111125 -0.693206,-0.248708 -0.333374,-0.137583 -0.597957,-0.349249 -0.264582,-0.216957 -0.428624,-0.534456 -0.158749,-0.322791 -0.158749,-0.804331 0,-0.375707 0.142874,-0.724956 0.142875,-0.349249 0.418041,-0.613832 0.275166,-0.269874 0.677331,-0.428623 0.407457,-0.164041 0.926039,-0.164041 0.582081,0 1.042455,0.185207 0.465665,0.185208 0.846664,0.566207 z"
         style="font-style:normal;font-variant:normal;font-weight:300;font-stretch:normal;font-family:Lato;-inkscape-font-specification:'Lato Light';stroke-width:0.264583"
         id="path877" />
      <path
         d="m 92.591325,18.080326 q -0.04762,0.08996 -0.137583,0.08996 -0.06879,0 -0.179916,-0.09525 -0.105833,-0.100541 -0.29104,-0.216958 -0.185208,-0.121708 -0.465666,-0.222249 -0.275165,-0.100541 -0.682622,-0.100541 -0.407457,0 -0.719665,0.116416 -0.306916,0.116416 -0.518582,0.317499 -0.206374,0.201083 -0.317498,0.465665 -0.105833,0.264583 -0.105833,0.555623 0,0.380999 0.158749,0.629707 0.164041,0.248707 0.428624,0.423332 0.264582,0.174624 0.597956,0.296332 0.338666,0.116416 0.693206,0.232833 0.354541,0.116416 0.687915,0.259291 0.338665,0.137583 0.603248,0.349249 0.264582,0.211666 0.423332,0.523873 0.164041,0.306916 0.164041,0.767289 0,0.470957 -0.164041,0.888997 -0.15875,0.412749 -0.465665,0.719665 -0.306916,0.306915 -0.751415,0.486831 -0.444498,0.174625 -1.015996,0.174625 -0.740831,0 -1.275288,-0.259291 -0.534457,-0.264582 -0.936622,-0.719664 l 0.148166,-0.232833 q 0.0635,-0.07937 0.148166,-0.07937 0.04763,0 0.121708,0.0635 0.07408,0.0635 0.179916,0.15875 0.105833,0.08996 0.254,0.201082 0.148166,0.105833 0.343957,0.201083 0.195791,0.08996 0.44979,0.153458 0.253999,0.0635 0.57679,0.0635 0.444498,0 0.793747,-0.132292 0.349249,-0.137583 0.587373,-0.370415 0.243416,-0.232833 0.370416,-0.550332 0.127,-0.32279 0.127,-0.687914 0,-0.396874 -0.164042,-0.650873 -0.158749,-0.259291 -0.423332,-0.428624 -0.264582,-0.174624 -0.603248,-0.29104 -0.333374,-0.116417 -0.687914,-0.227541 -0.354541,-0.111125 -0.693206,-0.248708 -0.333374,-0.137583 -0.597957,-0.349249 -0.264582,-0.216957 -0.428623,-0.534456 -0.15875,-0.322791 -0.15875,-0.804331 0,-0.375707 0.142875,-0.724956 0.142874,-0.349249 0.41804,-0.613832 0.275166,-0.269874 0.677331,-0.428623 0.407457,-0.164041 0.926039,-0.164041 0.582081,0 1.042455,0.185207 0.465665,0.185208 0.846664,0.566207 z"
         style="font-style:normal;font-variant:normal;font-weight:300;font-stretch:normal;font-family:Lato;-inkscape-font-specification:'Lato Light';stroke-width:0.264583"
         id="path879" />
      <path
         d="m 95.164721,24.657846 h -0.54504 v -7.487684 h 0.54504 z"
         style="font-style:normal;font-variant:normal;font-weight:300;font-stretch:normal;font-family:Lato;-inkscape-font-specification:'Lato Light';stroke-width:0.264583"
         id="path881" />
      <path
         d="m 104.02046,20.911358 q 0,0.867831 -0.25929,1.576912 -0.25929,0.703789 -0.73025,1.206496 -0.47095,0.497415 -1.13241,0.772581 -0.65617,0.269874 -1.44991,0.269874 -0.79375,0 -1.449915,-0.269874 -0.656164,-0.275166 -1.127121,-0.772581 -0.470957,-0.502707 -0.730248,-1.206496 -0.259291,-0.709081 -0.259291,-1.576912 0,-0.862539 0.259291,-1.566328 0.259291,-0.709081 0.730248,-1.206496 0.470957,-0.502707 1.127121,-0.777873 0.656165,-0.275165 1.449915,-0.275165 0.79374,0 1.44991,0.275165 0.66146,0.269874 1.13241,0.772581 0.47096,0.502707 0.73025,1.211788 0.25929,0.703789 0.25929,1.566328 z m -0.56091,0 q 0,-0.783164 -0.21696,-1.407578 -0.21696,-0.624415 -0.61383,-1.05833 -0.39688,-0.433916 -0.9525,-0.661457 -0.55562,-0.232832 -1.22766,-0.232832 -0.666751,0 -1.222374,0.232832 -0.555623,0.227541 -0.957788,0.661457 -0.396874,0.433915 -0.619123,1.05833 -0.216958,0.624414 -0.216958,1.407578 0,0.788456 0.216958,1.412871 0.222249,0.619123 0.619123,1.053038 0.402165,0.433915 0.957788,0.661456 0.555623,0.227541 1.222374,0.227541 0.67204,0 1.22766,-0.227541 0.55562,-0.227541 0.9525,-0.661456 0.39687,-0.433915 0.61383,-1.053038 0.21696,-0.624415 0.21696,-1.412871 z"
         style="font-style:normal;font-variant:normal;font-weight:300;font-stretch:normal;font-family:Lato;-inkscape-font-specification:'Lato Light';stroke-width:0.264583"
         id="path883" />
      <path
         d="m 106.01029,17.170162 q 0.0741,0 0.11113,0.02117 0.0423,0.01588 0.09,0.07937 l 4.85245,6.487563 q -0.0159,-0.15875 -0.0159,-0.306916 v -6.281188 h 0.47096 v 7.487684 h -0.254 q -0.0688,0 -0.11642,-0.02117 -0.0423,-0.02646 -0.0847,-0.08467 l -4.86303,-6.492854 q 0.0159,0.15875 0.0159,0.296333 v 6.302354 h -0.47624 v -7.487684 h 0.26987 z"
         style="font-style:normal;font-variant:normal;font-weight:300;font-stretch:normal;font-family:Lato;-inkscape-font-specification:'Lato Light';stroke-width:0.264583"
         id="path885" />
    </g>
  </g>
</svg>
