<?xml version="1.0" encoding="UTF-8" standalone="no"?>
<!-- Generator: Adobe Illustrator 16.0.0, SVG Export Plug-In . SVG Version: 6.00 Build 0)  -->

<svg
   xmlns:dc="http://purl.org/dc/elements/1.1/"
   xmlns:cc="http://creativecommons.org/ns#"
   xmlns:rdf="http://www.w3.org/1999/02/22-rdf-syntax-ns#"
   xmlns:svg="http://www.w3.org/2000/svg"
   xmlns="http://www.w3.org/2000/svg"
   xmlns:sodipodi="http://sodipodi.sourceforge.net/DTD/sodipodi-0.dtd"
   xmlns:inkscape="http://www.inkscape.org/namespaces/inkscape"
   version="1.1"
   id="Capa_1"
   x="0px"
   y="0px"
   width="480.543"
   height="468.543"
   viewBox="0 0 480.543 468.543"
   xml:space="preserve"
   sodipodi:docname="splashicon0.1.svg"
   inkscape:version="0.92.4 (5da689c313, 2019-01-14)"><metadata
   id="metadata945"><rdf:RDF><cc:Work
       rdf:about=""><dc:format>image/svg+xml</dc:format><dc:type
         rdf:resource="http://purl.org/dc/dcmitype/StillImage" /><dc:title /></cc:Work></rdf:RDF></metadata><defs
   id="defs943">
	

		
		
		
	<clipPath
   clipPathUnits="userSpaceOnUse"
   id="clipPath941"><rect
     style="opacity:1;fill:none;fill-opacity:0;stroke:#800000;stroke-width:8.39591217;stroke-linejoin:round;stroke-miterlimit:4;stroke-dasharray:none;stroke-dashoffset:0;stroke-opacity:0.97619037;paint-order:normal"
     id="rect943"
     width="157.57639"
     height="188.83281"
     x="352.52676"
     y="140.45584" /></clipPath>

</defs><sodipodi:namedview
   pagecolor="#c1c1c1"
   bordercolor="#666666"
   borderopacity="1"
   objecttolerance="10"
   gridtolerance="10"
   guidetolerance="10"
   inkscape:pageopacity="0.15686275"
   inkscape:pageshadow="2"
   inkscape:window-width="3200"
   inkscape:window-height="1746"
   id="namedview941"
   showgrid="false"
   inkscape:zoom="5.9724103"
   inkscape:cx="192.6129"
   inkscape:cy="90.331517"
   inkscape:window-x="0"
   inkscape:window-y="-20"
   inkscape:window-maximized="1"
   inkscape:current-layer="Capa_1" />

<g
   id="g910"
   transform="translate(0,-12)">
</g>
<g
   id="g912"
   transform="translate(0,-12)">
</g>
<g
   id="g914"
   transform="translate(0,-12)">
</g>
<g
   id="g916"
   transform="translate(0,-12)">
</g>
<g
   id="g918"
   transform="translate(0,-12)">
</g>
<g
   id="g920"
   transform="translate(0,-12)">
</g>
<g
   id="g922"
   transform="translate(0,-12)">
</g>
<g
   id="g924"
   transform="translate(0,-12)">
</g>
<g
   id="g926"
   transform="translate(0,-12)">
</g>
<g
   id="g928"
   transform="translate(0,-12)">
</g>
<g
   id="g930"
   transform="translate(0,-12)">
</g>
<g
   id="g932"
   transform="translate(0,-12)">
</g>
<g
   id="g934"
   transform="translate(0,-12)">
</g>
<g
   id="g936"
   transform="translate(0,-12)">
</g>
<g
   id="g938"
   transform="translate(0,-12)">
</g>
<path
   d="m 348.116,277.787 c -1.812,-8.523 -4.166,-16.875 -7.131,-25.075 -3.974,-10.987 -8.74,-21.724 -12.391,-32.836 -6.823,-20.771 4.948,-38.105 7.16,-41.256 3.876,-5.517 8.408,-10.58 13.19,-15.322 9.207,-9.128 19.361,-17.288 29.984,-24.803 -1.316,-2.039 -2.591,-4.1 -3.805,-6.199 -15.279,5.99 -93.854,33.452 -91.938,94.121 0.384,12.162 5.083,23.737 7.979,35.526 1.395,5.681 2.605,11.412 3.345,17.218 0.319,2.614 0.515,5.243 0.729,7.87 0.006,-0.02 0.004,-0.034 -0.008,-0.045 0.007,0.076 0.202,8.326 -0.164,11.9 -1.147,11.189 -2.799,22.494 -7.516,32.758 -4.387,9.543 -11.006,17.842 -19.193,24.402 -18.716,14.994 -43.514,20.988 -66.913,23.398 -1.114,0.117 -2.228,0.217 -3.342,0.314 16.19181,74.71565 17.32292,77.59397 19.456,77.113 23.607,-5.811 46.613,-14.588 67.227,-27.598 20.596,-12.996 38.308,-30.578 50.099,-51.984 12.335,-22.391 17.277,-48.038 16.225,-73.452 -0.357,-8.681 -1.181,-17.53 -2.993,-26.05 z"
   id="path904"
   inkscape:connector-curvature="0"
   sodipodi:nodetypes="cccccccccccccccccccccc" /><path
   inkscape:connector-curvature="0"
   d="m 243.95343,212.57843 c -0.37518,-1.87874 -1.59697,-3.50267 -3.33825,-4.43328 l -10.82959,-5.78948 5.09589,-8.78067 c 1.80956,-3.11863 0.64263,-7.05428 -2.60616,-8.78993 -3.25167,-1.73656 -7.35089,-0.61578 -9.1595,2.50099 l -5.09589,8.78069 -10.8296,-5.78763 c -1.74127,-0.9306 -3.82408,-1.07278 -5.68368,-0.3896 -1.86249,0.68319 -3.3113,2.12339 -3.96068,3.93196 l -13.28183,37.0292 c -1.06111,2.96074 0.24052,6.22523 3.09102,7.74945 l 4.56098,2.43913 -22.23737,38.3143 -19.29355,-94.02934 c -1.81728,-8.8573 -10.61025,-15.79618 -20.01892,-15.79618 H 76.442462 c -9.40675,0 -18.19971,6.93888 -20.01893,15.79618 l -39.27015,191.39609 c -0.002,0.0107 -0.004,0.0213 -0.005,0.0323 L 3.9403551,441.12369 c -0.9601081,4.67794 0.197216,9.35401 3.174707,12.82807 2.9755599,3.47312 7.5317499,5.46542 12.4996799,5.46542 H 187.19546 c 4.96697,0 9.52219,-1.9923 12.49969,-5.46542 2.97748,-3.47406 4.13481,-8.14921 3.17566,-12.82899 l -13.21063,-64.38584 c -9.6e-4,-10e-4 -9.6e-4,-0.004 -9.6e-4,-0.004 l -15.95433,-77.75769 29.97692,-51.64827 4.56194,2.43913 c 1.03131,0.55209 2.15784,0.81705 3.27284,0.81705 1.96833,0 3.902,-0.82719 5.21903,-2.37359 l 25.81709,-30.33034 c 1.26124,-1.48083 1.774,-3.42328 1.40072,-5.3011 z M 69.638972,187.82245 c 0.57723,-2.81027 3.82024,-5.36942 6.80349,-5.36942 H 130.3663 c 2.98518,0 6.22723,2.55823 6.80349,5.3685 l 22.36629,109.00293 -28.96103,49.89877 c -5.93573,-2.44189 -12.62282,-4.27171 -20.43548,-4.95118 v -13.77436 h 10.54387 c 3.71922,0 6.73423,-2.89335 6.73423,-6.46249 0,-3.56916 -3.01501,-6.4625 -6.73423,-6.4625 h -10.54387 v -38.04656 h 10.54387 c 3.71922,0 6.73423,-2.89336 6.73423,-6.4625 0,-3.56914 -3.01501,-6.46249 -6.73423,-6.46249 h -10.54387 v -38.04566 h 10.54387 c 3.71922,0 6.73423,-2.89335 6.73423,-6.46249 0,-3.56914 -3.01501,-6.4625 -6.73423,-6.4625 h -10.54387 v -11.3472 c 0,-3.56915 -3.01501,-6.4625 -6.73423,-6.4625 -3.719218,0 -6.734228,2.89335 -6.734228,6.4625 v 11.3472 h -10.54387 c -3.71922,0 -6.73422,2.89336 -6.73422,6.4625 0,3.56914 3.015,6.46249 6.73422,6.46249 h 10.54387 v 38.04566 h -10.54387 c -3.71922,0 -6.73422,2.89335 -6.73422,6.46249 0,3.56914 3.015,6.4625 6.73422,6.4625 h 10.54387 v 38.04656 h -10.54387 c -3.71922,0 -6.73422,2.89334 -6.73422,6.4625 0,3.56914 3.015,6.46249 6.73422,6.46249 h 10.54387 v 13.77436 c -18.70863,1.62762 -30.96684,9.86731 -41.90996,17.23271 -7.59428,5.11091 -14.40644,9.68728 -22.627,11.60756 z M 189.29365,445.74253 c -0.41559,0.48284 -1.1602,0.75058 -2.09819,0.75058 H 19.614272 c -0.93895,0 -1.68357,-0.26681 -2.0982,-0.7515 -0.4156,-0.48376 -0.54354,-1.2371 -0.36269,-2.12062 l 12.19376,-59.42912 c 13.60988,-1.47068 23.5265,-8.13074 33.14682,-14.60523 11.60115,-7.80763 22.55773,-15.18134 40.910418,-15.18134 18.35269,0 29.30928,7.37371 40.90946,15.18134 9.62128,6.47541 19.53695,13.13548 33.14777,14.60523 l 12.19377,59.42819 c 0.18278,0.88352 0.0538,1.63687 -0.36173,2.12247 z m -14.61712,-75.13021 c -8.22056,-1.92028 -15.03367,-6.49665 -22.62795,-11.6085 -3.05446,-2.05599 -6.21089,-4.17938 -9.58088,-6.20952 l 21.09544,-36.34416 z m 35.19596,-134.77074 -11.03837,-5.90119 8.82858,-24.61474 19.37147,10.35477 z"
   id="path1654"
   style="fill:#44aa00;stroke-width:0.94242311" /><path
   inkscape:connector-curvature="0"
   d="m 473.70384,48.39002 c -0.14809,-0.676259 -0.63032,-1.260797 -1.31757,-1.595769 l -4.27433,-2.083945 2.01129,-3.160635 c 0.71422,-1.122562 0.25363,-2.539213 -1.02862,-3.163962 -1.2834,-0.625083 -2.90132,-0.221657 -3.61517,0.900239 l -2.01129,3.16064 -4.27433,-2.083278 c -0.68727,-0.334971 -1.50933,-0.386154 -2.24329,-0.140236 -0.7351,0.245913 -1.30694,0.764319 -1.56324,1.415324 l -5.2422,13.328783 c -0.4188,1.065729 0.0949,2.24079 1.21999,2.789442 l 1.80017,0.877972 -8.77686,13.791363 -7.61496,-33.846181 c -0.71727,-3.188218 -4.18776,-5.685887 -7.90126,-5.685887 h -21.28319 c -3.71274,0 -7.18324,2.497669 -7.90127,5.685887 L 384.1882,107.47344 c -6.1e-4,0.004 -0.003,0.007 -0.003,0.0117 l -5.21308,23.17059 c -0.37894,1.68383 0.0779,3.36701 1.25303,4.6175 1.17442,1.25017 2.97271,1.9673 4.9335,1.9673 h 66.14239 c 1.96041,0 3.7583,-0.71713 4.9335,-1.9673 1.17518,-1.25049 1.63197,-2.93333 1.2534,-4.61783 l -5.21411,-23.1759 c -3.7e-4,-3.7e-4 -3.7e-4,-0.002 -3.7e-4,-0.002 l -6.29701,-27.989142 11.83158,-18.590973 1.80054,0.877978 c 0.40706,0.198724 0.85169,0.2941 1.29176,0.2941 0.77689,0 1.54009,-0.297749 2.05991,-0.854384 l 10.18994,-10.917422 c 0.4978,-0.533029 0.70018,-1.232215 0.55285,-1.908148 z m -68.80013,-8.910999 c 0.22783,-1.01157 1.50781,-1.932741 2.68527,-1.932741 h 21.28319 c 1.17822,0 2.45782,0.920844 2.68526,1.932408 l 8.82774,39.23598 -11.43061,17.961232 c -2.34278,-0.87898 -4.9821,-1.53762 -8.06568,-1.78221 v -4.95812 h 4.16156 c 1.46794,0 2.65793,-1.04147 2.65793,-2.326192 0,-1.284732 -1.18999,-2.326195 -2.65793,-2.326195 h -4.16156 V 71.58819 h 4.16156 c 1.46794,0 2.65793,-1.041475 2.65793,-2.3262 0,-1.284715 -1.18999,-2.326189 -2.65793,-2.326189 h -4.16156 V 53.241135 h 4.16156 c 1.46794,0 2.65793,-1.041469 2.65793,-2.326196 0,-1.284725 -1.18999,-2.326201 -2.65793,-2.326201 h -4.16156 v -4.084461 c 0,-1.284726 -1.18999,-2.326201 -2.65793,-2.326201 -1.46793,0 -2.65793,1.041475 -2.65793,2.326201 v 4.084461 h -4.16155 c -1.46794,0 -2.65793,1.041476 -2.65793,2.326201 0,1.284727 1.18999,2.326196 2.65793,2.326196 h 4.16155 v 13.694666 h -4.16155 c -1.46794,0 -2.65793,1.041474 -2.65793,2.326189 0,1.284725 1.18999,2.3262 2.65793,2.3262 h 4.16155 v 13.694993 h -4.16155 c -1.46794,0 -2.65793,1.041463 -2.65793,2.326195 0,1.284722 1.18999,2.326192 2.65793,2.326192 h 4.16155 v 4.95812 c -7.3841,0.58587 -12.22229,3.55178 -16.54144,6.20298 -2.99737,1.83969 -5.68607,3.48697 -8.93064,4.17819 z m 47.22648,92.839199 c -0.16403,0.17381 -0.45793,0.27018 -0.82814,0.27018 h -66.14258 c -0.37059,0 -0.66448,-0.0961 -0.82813,-0.27051 -0.16403,-0.17413 -0.21453,-0.44529 -0.14314,-0.76332 l 4.81274,-21.39171 c 5.37169,-0.52938 9.28567,-2.92669 13.08271,-5.25721 4.57886,-2.81039 8.90331,-5.46457 16.14693,-5.46457 7.24362,0 11.56807,2.65418 16.14654,5.46457 3.79741,2.33085 7.71103,4.72816 13.08308,5.25721 l 4.81275,21.39137 c 0.0722,0.31802 0.0213,0.5892 -0.14276,0.76399 z m -5.76924,-27.04336 c -3.24457,-0.69122 -5.93363,-2.3385 -8.93102,-4.17852 -1.20555,-0.74006 -2.45137,-1.50439 -3.78146,-2.23514 l 8.32614,-13.082204 z m 13.89149,-48.511191 -4.35673,-2.124149 3.48455,-8.860162 7.64573,3.727236 z"
   id="path1654-3"
   style="fill:#44aa00;stroke-width:0.35521969" /><path
   sodipodi:nodetypes="cccccccccccccccccccccc"
   inkscape:connector-curvature="0"
   id="path897"
   d="m 348.116,277.787 c -1.812,-8.523 -4.166,-16.875 -7.131,-25.075 -3.974,-10.987 -8.74,-21.724 -12.391,-32.836 -6.823,-20.771 4.948,-38.105 7.16,-41.256 3.876,-5.517 8.408,-10.58 13.19,-15.322 9.207,-9.128 19.361,-17.288 29.984,-24.803 -1.316,-2.039 -2.591,-4.1 -3.805,-6.199 -15.279,5.99 -93.854,33.452 -91.938,94.121 0.384,12.162 5.083,23.737 7.979,35.526 1.395,5.681 2.605,11.412 3.345,17.218 0.319,2.614 0.515,5.243 0.729,7.87 0.006,-0.02 0.004,-0.034 -0.008,-0.045 0.007,0.076 0.202,8.326 -0.164,11.9 -1.147,11.189 -2.799,22.494 -7.516,32.758 -4.387,9.543 -11.006,17.842 -19.193,24.402 -18.716,14.994 -43.514,20.988 -66.913,23.398 -1.114,0.117 -2.228,0.217 -3.342,0.314 16.19181,74.71565 17.32292,77.59397 19.456,77.113 23.607,-5.811 46.613,-14.588 67.227,-27.598 20.596,-12.996 38.308,-30.578 50.099,-51.984 12.335,-22.391 17.277,-48.038 16.225,-73.452 -0.357,-8.681 -1.181,-17.53 -2.993,-26.05 z"
   style="fill:#ff7f2a" /><text
   xml:space="preserve"
   style="font-style:normal;font-variant:normal;font-weight:bold;font-stretch:normal;font-size:40px;line-height:1.25;font-family:'Yanone Kaffeesatz';-inkscape-font-specification:'Yanone Kaffeesatz, Bold';font-variant-ligatures:normal;font-variant-caps:normal;font-variant-numeric:normal;font-feature-settings:normal;text-align:center;letter-spacing:0px;word-spacing:0px;writing-mode:lr-tb;text-anchor:middle;fill:#aa4400;fill-opacity:1;stroke:none"
   x="418.17307"
   y="212.80861"
   id="text947"><tspan
     sodipodi:role="line"
     id="tspan945"
     x="418.17307"
     y="212.80861"
     style="font-style:normal;font-variant:normal;font-weight:300;font-stretch:normal;font-family:'Yanone Kaffeesatz';-inkscape-font-specification:'Yanone Kaffeesatz Light';fill:#aa4400">Keep</tspan><tspan
     sodipodi:role="line"
     x="421.64963"
     y="262.80859"
     id="tspan953"
     style="font-style:normal;font-variant:normal;font-weight:300;font-stretch:normal;font-family:'Yanone Kaffeesatz';-inkscape-font-specification:'Yanone Kaffeesatz Light';fill:#aa4400">your </tspan><tspan
     sodipodi:role="line"
     x="421.64963"
     y="312.80859"
     id="tspan949"
     style="font-style:normal;font-variant:normal;font-weight:300;font-stretch:normal;font-family:'Yanone Kaffeesatz';-inkscape-font-specification:'Yanone Kaffeesatz Light';fill:#aa4400">beats </tspan><tspan
     sodipodi:role="line"
     x="421.64963"
     y="362.80859"
     id="tspan951"
     style="font-style:normal;font-variant:normal;font-weight:300;font-stretch:normal;font-family:'Yanone Kaffeesatz';-inkscape-font-specification:'Yanone Kaffeesatz Light';fill:#aa4400">in </tspan><tspan
     sodipodi:role="line"
     x="418.17307"
     y="412.80859"
     id="tspan955"
     style="font-style:normal;font-variant:normal;font-weight:300;font-stretch:normal;font-family:'Yanone Kaffeesatz';-inkscape-font-specification:'Yanone Kaffeesatz Light';fill:#aa4400">sync.</tspan></text>
<text
   xml:space="preserve"
   style="font-style:normal;font-variant:normal;font-weight:bold;font-stretch:normal;font-size:85.33333588px;line-height:1.25;font-family:'Yanone Kaffeesatz';-inkscape-font-specification:'Yanone Kaffeesatz Bold';letter-spacing:0px;word-spacing:0px;fill:#ff7f2a;fill-opacity:1;stroke:none"
   x="19.890451"
   y="91.571579"
   id="text959"><tspan
     sodipodi:role="line"
     id="tspan957"
     x="19.890451"
     y="91.571579"
     style="font-style:normal;font-variant:normal;font-weight:bold;font-stretch:normal;font-family:'Yanone Kaffeesatz';-inkscape-font-specification:'Yanone Kaffeesatz Bold';fill:#ff7f2a">Remotronome</tspan></text>
<path
   style="opacity:1;fill:#2b2200;fill-opacity:1;stroke:#241f1c;stroke-width:2.53132486;stroke-linejoin:round;stroke-miterlimit:4;stroke-dasharray:none;stroke-dashoffset:0;stroke-opacity:1;paint-order:normal"
   d="m 204.38795,232.74622 -5.37645,-2.88521 4.09369,-11.41136 c 2.25153,-6.27625 4.22072,-11.74646 4.37597,-12.15603 0.27192,-0.71735 0.62284,-0.56292 9.56781,4.21076 5.10704,2.72548 9.37349,5.04338 9.481,5.1509 0.16248,0.16247 -13.79661,16.88743 -16.05983,19.24194 l -0.70574,0.73421 z"
   id="path2505"
   inkscape:connector-curvature="0" /><path
   style="opacity:1;fill:#2b2200;fill-opacity:1;stroke:#241f1c;stroke-width:2.53132486;stroke-linejoin:round;stroke-miterlimit:4;stroke-dasharray:none;stroke-dashoffset:0;stroke-opacity:1;paint-order:normal"
   d="m 457.99498,55.489653 -1.91968,-0.990929 0.6289,-1.588231 c 0.3459,-0.873528 1.04384,-2.643082 1.55099,-3.932344 0.50714,-1.289262 1.02271,-2.459668 1.14572,-2.600902 0.123,-0.141235 1.84181,0.5065 3.81958,1.439411 l 3.59594,1.696201 -3.24103,3.499968 c -1.78257,1.924983 -3.33547,3.49272 -3.45089,3.483861 -0.11542,-0.0089 -1.07371,-0.462025 -2.12953,-1.007035 z"
   id="path2507"
   inkscape:connector-curvature="0" /><path
   style="opacity:1;fill:#98ff55;fill-opacity:0.98431373;stroke:#98ff55;stroke-width:2.53132486;stroke-linejoin:round;stroke-miterlimit:4;stroke-dasharray:none;stroke-dashoffset:0;stroke-opacity:0.98431373;paint-order:normal"
   d="m 384.52266,132.02878 c -0.18574,-0.48402 3.95142,-19.7083 4.54855,-21.13588 0.22027,-0.52663 0.70783,-0.76263 1.91473,-0.92682 2.37321,-0.32286 6.47402,-2.09797 10.66079,-4.61472 7.71548,-4.63795 10.66039,-5.639926 16.57622,-5.639926 5.99814,0 8.26544,0.776936 16.82127,5.764156 4.50674,2.62699 9.23987,4.60354 11.04514,4.61243 0.52488,0.003 1.03588,0.25216 1.20904,0.59051 0.54181,1.05867 4.82725,20.82278 4.62773,21.34272 -0.17233,0.44908 -4.06713,0.50775 -33.70318,0.50775 -29.41407,0 -33.53179,-0.0611 -33.70029,-0.50022 z"
   id="path2509"
   inkscape:connector-curvature="0" /><path
   style="opacity:1;fill:#98ff55;fill-opacity:0.98431373;stroke:#98ff55;stroke-width:0.63283122;stroke-linejoin:round;stroke-miterlimit:4;stroke-dasharray:none;stroke-dashoffset:0;stroke-opacity:0.98431373;paint-order:normal"
   d="m 390.17423,105.08034 c 0.0255,-0.0853 3.36648,-14.9229 7.42436,-32.972564 5.70254,-25.36525 7.42388,-32.896968 7.58021,-33.16721 0.24732,-0.427526 0.68108,-0.796296 1.29077,-1.097357 l 0.46045,-0.22737 h 11.30197 11.30197 l 0.46357,0.22788 c 0.61882,0.304199 1.09847,0.727084 1.32489,1.168111 0.12353,0.240603 1.66881,6.960492 4.60563,20.028216 l 4.41972,19.666122 -5.64789,8.881816 c -3.10635,4.884998 -5.67742,8.914293 -5.7135,8.953989 -0.0361,0.0397 -0.5304,-0.08083 -1.0985,-0.267832 -1.92486,-0.633613 -3.90954,-1.077322 -5.67927,-1.269695 -0.48348,-0.05255 -0.96381,-0.112381 -1.06741,-0.132948 l -0.18837,-0.0374 V 92.41361 89.993122 l 2.40899,-0.02668 2.409,-0.02668 0.55949,-0.275601 c 2.24193,-1.104351 1.67532,-3.954066 -0.86825,-4.366795 -0.29294,-0.04753 -1.42735,-0.08671 -2.52092,-0.08706 l -1.98831,-6.33e-4 v -6.775355 -6.775355 l 2.36504,-0.02893 c 2.23114,-0.02729 2.39216,-0.03976 2.844,-0.220227 0.54646,-0.218262 1.12146,-0.735474 1.36474,-1.227565 0.22788,-0.460958 0.22788,-1.380845 0,-1.841803 -0.24328,-0.492091 -0.81828,-1.009302 -1.36474,-1.227564 -0.45184,-0.180467 -0.61286,-0.192936 -2.844,-0.220228 l -2.36504,-0.02893 V 60.09694 53.330164 l 2.36504,-0.03009 2.36505,-0.03009 0.54472,-0.257573 c 0.65516,-0.309789 1.04623,-0.682174 1.30899,-1.246442 0.50983,-1.094825 0.005,-2.31056 -1.20632,-2.907448 l -0.55949,-0.275601 -2.40305,-0.02663 -2.40305,-0.02663 -0.0269,-2.275621 c -0.0257,-2.17454 -0.0353,-2.291322 -0.21576,-2.629096 -0.50504,-0.945153 -1.21699,-1.376772 -2.35776,-1.429393 -0.58276,-0.02688 -0.80655,1.18e-4 -1.18546,0.143001 -0.60284,0.227324 -1.11391,0.669257 -1.39899,1.209735 l -0.22688,0.430132 -0.0269,2.275621 -0.0269,2.275621 -2.40305,0.02663 -2.40305,0.02663 -0.5595,0.275601 c -0.65792,0.324089 -1.08832,0.785469 -1.28495,1.377452 -0.46085,1.387491 0.5387,2.762875 2.18061,3.000538 0.27786,0.04022 1.39994,0.07388 2.49351,0.07481 l 1.98831,0.0017 v 6.775356 6.775355 l -2.36504,0.02893 c -2.23114,0.02729 -2.39216,0.03976 -2.84399,0.220228 -0.54646,0.218262 -1.12147,0.735473 -1.36474,1.227564 -0.22788,0.460958 -0.22788,1.380845 0,1.841803 0.24327,0.492091 0.81828,1.009303 1.36474,1.227565 0.45183,0.180466 0.61285,0.192935 2.84399,0.220227 l 2.36504,0.02893 v 6.766775 6.766777 l -2.36504,0.03009 -2.36504,0.03009 -0.54988,0.259984 c -0.91428,0.432273 -1.41179,1.078567 -1.48391,1.927694 -0.0792,0.932638 0.43292,1.754115 1.38639,2.223784 l 0.5595,0.275601 2.40899,0.02668 2.40899,0.02668 v 2.420488 2.420488 l -0.18836,0.036 c -0.10361,0.0198 -0.69696,0.09704 -1.31857,0.171647 -3.25569,0.390761 -6.47158,1.395662 -9.79603,3.061057 -1.39939,0.701029 -2.68279,1.434909 -5.46002,3.122166 -2.59343,1.57559 -4.02983,2.3651 -5.26956,2.89637 -0.91189,0.39079 -2.48571,0.93147 -3.07035,1.05482 -0.2471,0.0521 -0.27491,0.0408 -0.23402,-0.0958 z"
   id="path2513"
   inkscape:connector-curvature="0" /><path
   style="opacity:1;fill:#98ff55;fill-opacity:0.98431373;stroke:#98ff55;stroke-width:0.63283122;stroke-linejoin:round;stroke-miterlimit:4;stroke-dasharray:none;stroke-dashoffset:0;stroke-opacity:0.98431373;paint-order:normal"
   d="m 389.99381,105.36905 c -0.0553,-0.0553 -0.10046,-0.1529 -0.10046,-0.217 0,-0.0641 2.50762,-11.254924 5.57248,-24.868514 7.3369,-32.589167 8.99795,-39.886833 9.37213,-41.175676 0.16102,-0.554632 0.65941,-1.063328 1.44756,-1.477486 l 0.58526,-0.307549 h 11.36121 11.3612 l 0.56445,0.296612 c 0.64266,0.337708 1.22727,0.871415 1.39987,1.277979 0.23885,0.562614 1.41344,5.686994 6.97616,30.434768 1.15758,5.149959 2.08461,9.415921 2.06005,9.479915 -0.0246,0.06399 -2.42609,3.855953 -5.33673,8.426576 -2.91065,4.570622 -5.4644,8.581163 -5.675,8.912314 -0.22552,0.354609 -0.45703,0.621124 -0.56324,0.648396 -0.0992,0.02547 -0.49475,-0.04805 -0.87904,-0.163365 -2.6115,-0.783665 -4.12974,-1.126879 -5.9311,-1.340791 -0.62161,-0.07382 -1.21497,-0.168569 -1.31857,-0.210561 l -0.18836,-0.07635 v -2.59212 c 0,-1.425668 0.0298,-2.610528 0.0662,-2.633024 0.0364,-0.0225 1.17601,-0.06752 2.53248,-0.100045 2.34684,-0.05628 2.48498,-0.0685 2.85202,-0.252416 0.55793,-0.279556 0.8736,-0.572872 1.08377,-1.007011 0.47908,-0.989656 -0.005,-2.137875 -1.10611,-2.624259 -0.52999,-0.234086 -0.79215,-0.260256 -3.25167,-0.324605 l -2.13481,-0.05585 -0.0214,-6.971991 c -0.017,-5.534854 2.6e-4,-6.979492 0.0837,-7.008382 0.0578,-0.02002 1.21649,-0.06801 2.57482,-0.106663 2.78952,-0.07937 2.81026,-0.08405 3.49038,-0.786982 0.42448,-0.438726 0.5281,-0.692172 0.5281,-1.291751 0,-0.579148 -0.14601,-0.927991 -0.55508,-1.326125 -0.66816,-0.650319 -0.70334,-0.657799 -3.4634,-0.736331 -1.35833,-0.03865 -2.51678,-0.08656 -2.57434,-0.106478 -0.0826,-0.02857 -0.10464,-1.500591 -0.10464,-6.982512 0,-3.820468 0.0283,-6.963658 0.0628,-6.984866 0.0345,-0.02121 1.15531,-0.06596 2.49061,-0.09945 2.35391,-0.05903 2.44058,-0.0672 2.84643,-0.268205 1.74817,-0.865831 1.78276,-2.789023 0.0656,-3.649761 -0.38592,-0.19345 -0.49055,-0.202906 -2.87021,-0.259397 -1.35833,-0.03225 -2.49564,-0.08446 -2.52736,-0.116035 -0.0317,-0.03157 -0.0833,-1.093419 -0.11464,-2.359658 -0.0622,-2.511902 -0.0717,-2.563476 -0.58853,-3.167229 -0.39061,-0.456332 -1.00385,-0.683051 -1.87272,-0.692351 -0.98425,-0.01054 -1.69572,0.365661 -2.13071,1.126629 -0.1912,0.334497 -0.20038,0.431306 -0.25508,2.691092 -0.0312,1.289261 -0.0825,2.369945 -0.11396,2.401517 -0.0315,0.03157 -1.16858,0.08379 -2.52691,0.116035 -2.35098,0.05581 -2.48823,0.06792 -2.85542,0.251901 -0.85504,0.428428 -1.25874,1.013275 -1.25874,1.823592 0,1.110062 0.96391,1.960217 2.31422,2.041101 0.32231,0.01931 1.43367,0.06029 2.46969,0.09107 l 1.88366,0.05597 0.0214,6.971991 c 0.017,5.534854 -2.5e-4,6.979492 -0.0837,7.008382 -0.0578,0.02002 -1.21649,0.06801 -2.57482,0.106663 -2.76005,0.07853 -2.79523,0.08601 -3.4634,0.736331 -0.41048,0.399516 -0.55508,0.747087 -0.55508,1.334264 0,0.587176 0.1446,0.934747 0.55508,1.334263 0.66817,0.65032 0.70335,0.657799 3.4634,0.736331 1.35833,0.03865 2.51678,0.08656 2.57434,0.106478 0.0826,0.02857 0.10465,1.500591 0.10465,6.982513 0,3.820467 -0.0283,6.963657 -0.0628,6.984865 -0.0345,0.02121 -1.15531,0.06596 -2.49062,0.09945 -2.3539,0.05903 -2.44058,0.0672 -2.84642,0.268204 -0.86397,0.427903 -1.29764,1.040922 -1.29764,1.834297 0,0.827325 0.40368,1.402559 1.29764,1.849137 0.30244,0.151086 0.5737,0.173003 2.80117,0.226334 1.35646,0.03248 2.49608,0.07746 2.53248,0.09995 0.0364,0.0225 0.0662,1.207356 0.0662,2.633024 v 2.59212 l -0.18837,0.07571 c -0.1036,0.04164 -0.54626,0.118253 -0.98369,0.170252 -3.6525,0.43419 -6.7764,1.378707 -10.16187,3.072458 -1.37015,0.685487 -2.84111,1.522906 -5.99576,3.413395 -3.03083,1.81629 -4.6988,2.65032 -6.53003,3.26519 -1.42141,0.47726 -1.73541,0.5371 -1.90877,0.36373 z"
   id="path2515"
   inkscape:connector-curvature="0" /><path
   style="opacity:1;fill:#98ff55;fill-opacity:0.98431373;stroke:#98ff55;stroke-width:0.63283122;stroke-linejoin:round;stroke-miterlimit:4;stroke-dasharray:none;stroke-dashoffset:0;stroke-opacity:0.98431373;paint-order:normal"
   d="m 445.31485,104.97462 c -2.16826,-0.63929 -3.72292,-1.41448 -8.00225,-3.99008 -1.70761,-1.027763 -3.20512,-1.914393 -3.3278,-1.970292 -0.12269,-0.0559 -0.22307,-0.137434 -0.22307,-0.181189 0,-0.153945 8.14595,-12.877984 8.20199,-12.811575 0.0312,0.03699 1.01101,4.324322 2.17732,9.527414 1.16631,5.203092 2.13762,9.507262 2.15846,9.564812 0.0531,0.14658 -0.0791,0.12791 -0.98465,-0.13909 z"
   id="path2517"
   inkscape:connector-curvature="0" /><path
   style="opacity:1;fill:#98ff54;fill-opacity:0.98431373;stroke:#98ff55;stroke-width:1.26566243;stroke-linejoin:round;stroke-miterlimit:4;stroke-dasharray:none;stroke-dashoffset:0;stroke-opacity:0.98431373;paint-order:normal"
   d="m 17.994027,446.03068 c -0.356125,-0.21714 -0.600603,-0.54504 -0.73108,-0.98053 -0.180512,-0.6025 0.29225,-3.03498 5.971543,-30.72516 l 6.167574,-30.07086 0.926096,-0.10533 c 1.681997,-0.19132 5.747684,-1.05504 7.874714,-1.67292 4.304043,-1.25027 9.762662,-3.71237 14.657297,-6.61115 1.285634,-0.76139 5.615088,-3.54772 9.621009,-6.19183 9.825105,-6.48507 12.849844,-8.27072 17.424094,-10.2863 7.785863,-3.43072 14.643658,-4.8429 23.514156,-4.8421 11.87463,10e-4 21.05066,2.70177 32.23154,9.48639 1.05904,0.64263 4.90171,3.14405 8.53926,5.55872 3.63756,2.41466 7.55558,4.9552 8.70671,5.64564 8.22057,4.93066 14.3445,7.3455 21.93147,8.64818 l 2.59254,0.44514 6.15203,29.96832 c 4.1044,19.99375 6.12021,30.14462 6.05638,30.49801 -0.11068,0.61292 -0.58705,1.18099 -1.17912,1.40609 -0.25566,0.0972 -32.75558,0.15694 -85.16729,0.15656 -83.710998,-6.7e-4 -84.760458,-0.005 -85.288923,-0.32687 z"
   id="path2484"
   inkscape:connector-curvature="0" /><path
   style="opacity:1;fill:#98ff54;fill-opacity:0.98431373;stroke:#98ff55;stroke-width:1.26566243;stroke-linejoin:round;stroke-miterlimit:4;stroke-dasharray:none;stroke-dashoffset:0;stroke-opacity:0.98431373;paint-order:normal"
   d="m 172.46204,369.94017 c -2.58115,-0.7967 -4.76238,-1.68892 -7.42595,-3.03753 -3.30419,-1.67297 -5.75901,-3.18375 -13.31121,-8.19219 -3.63756,-2.41234 -7.16001,-4.71747 -7.82766,-5.12251 -0.66765,-0.40503 -1.21391,-0.80213 -1.21391,-0.88244 0,-0.34222 20.85138,-36.05027 20.90524,-35.80029 0.63274,2.9367 10.90771,53.21803 10.90771,53.37767 0,0.29223 0.0503,0.3007 -2.03422,-0.34271 z"
   id="path2486"
   inkscape:connector-curvature="0" /><path
   style="opacity:1;fill:#98ff54;fill-opacity:0.98431373;stroke:#98ff55;stroke-width:1.26566243;stroke-linejoin:round;stroke-miterlimit:4;stroke-dasharray:none;stroke-dashoffset:0;stroke-opacity:0.98431373;paint-order:normal"
   d="m 32.252486,370.31105 c 0.04137,-0.12114 8.488572,-41.24639 18.771557,-91.38946 10.282986,-50.14308 18.839198,-91.5531 19.013806,-92.02229 0.512673,-1.37759 1.910244,-2.77693 3.619206,-3.62378 l 1.440224,-0.71369 27.639721,-0.05 c 20.18436,-0.0365 27.90889,0.001 28.63765,0.14092 2.08949,0.39974 4.13695,1.86953 5.08678,3.65161 0.48561,0.91109 1.27661,4.62288 8.82446,41.40918 4.56008,22.2246 9.61599,46.86272 11.23535,54.75136 l 2.94431,14.34297 -14.35762,24.75347 c -7.89668,13.6144 -14.41549,24.8177 -14.48623,24.8962 -0.0707,0.0785 -1.16036,-0.24394 -2.42139,-0.71655 -4.64373,-1.74039 -9.93198,-3.03915 -15.03411,-3.69229 -1.45394,-0.18612 -2.71599,-0.3384 -2.80456,-0.3384 -0.10044,0 -0.16103,-2.5518 -0.16103,-6.78119 v -6.78118 l 5.06495,-0.005 c 6.07731,-0.007 6.96442,-0.10009 8.59513,-0.90603 1.39291,-0.68841 2.328,-1.63787 3.03951,-3.08621 0.41155,-0.83776 0.46259,-1.12642 0.46259,-2.61603 0,-1.48961 -0.051,-1.77827 -0.46259,-2.61603 -0.72183,-1.46934 -1.64337,-2.39617 -3.09718,-3.11493 l -1.27757,-0.63163 -6.16242,-0.0478 -6.16242,-0.0478 v -18.9886 -18.98861 l 6.06957,-0.0532 c 7.1239,-0.0624 7.20942,-0.0796 9.0701,-1.82017 1.52976,-1.43102 2.02258,-2.57031 2.02258,-4.67577 0,-1.37541 -0.0607,-1.72021 -0.44874,-2.54807 -0.87805,-1.87337 -2.77181,-3.37368 -4.7919,-3.79632 -0.54576,-0.11419 -3.01086,-0.18564 -6.40445,-0.18564 h -5.51716 v -18.92034 -18.92033 l 5.39983,-0.003 c 5.7594,-0.003 6.93229,-0.12124 8.34146,-0.84014 1.03843,-0.52977 2.44456,-2.01271 2.96837,-3.13052 0.39728,-0.84778 0.45258,-1.17044 0.45255,-2.64018 -3e-5,-1.49892 -0.0497,-1.77552 -0.47382,-2.6397 -0.65923,-1.34314 -1.87444,-2.53521 -3.24738,-3.18554 l -1.13442,-0.53735 -6.1533,-0.0496 -6.15329,-0.0496 v -6.08609 c 0,-5.59993 -0.0265,-6.17109 -0.33211,-7.15021 -0.95014,-3.04433 -4.27654,-5.0602 -7.45284,-4.51658 -2.36854,0.40538 -4.169886,1.68998 -5.14441,3.66868 l -0.549288,1.11529 -0.0492,6.48448 -0.0492,6.48449 -6.155143,0.0495 -6.155142,0.0495 -1.277506,0.63163 c -1.464159,0.72392 -2.446178,1.71 -3.122752,3.1357 -0.380544,0.80188 -0.437022,1.13729 -0.437022,2.59526 0,1.46621 0.05579,1.7934 0.448741,2.63178 0.560274,1.19538 1.714354,2.44517 2.807153,3.03994 1.499501,0.81614 2.584636,0.93593 8.506527,0.93912 l 5.39983,0.003 v 18.92033 18.92034 H 91.13569 c -3.026405,0 -5.890811,0.0736 -6.365347,0.16362 -1.991554,0.37769 -3.97117,1.88984 -4.827361,3.68742 -0.528582,1.10977 -0.699206,3.03638 -0.384928,4.34644 0.472622,1.97011 2.357064,3.87256 4.487775,4.53067 0.983093,0.30365 1.564788,0.3319 6.83349,0.3319 h 5.758925 v 18.99644 18.99643 l -6.237013,0.0495 -6.237013,0.0495 -0.953084,0.46803 c -1.413021,0.69389 -2.543874,1.79335 -3.185853,3.09739 -0.510221,1.0364 -0.549288,1.23535 -0.549288,2.79717 0,1.56182 0.03907,1.76076 0.549288,2.79717 0.985229,2.00128 2.924012,3.34396 5.26823,3.64844 0.66815,0.0868 3.49405,0.16012 6.279776,0.16296 l 5.064957,0.005 v 6.78118 c 0,4.22939 -0.0606,6.78119 -0.161032,6.78119 -0.08857,0 -1.350623,0.15267 -2.804563,0.33928 -7.959671,1.02157 -14.899189,3.16464 -22.484767,6.94376 -5.021997,2.50195 -7.894985,4.24574 -17.413405,10.56926 -6.418502,4.26411 -8.961644,5.82221 -12.050419,7.3829 -2.419735,1.22264 -5.702665,2.53939 -7.62338,3.05768 -0.736721,0.1988 -1.470875,0.39895 -1.631453,0.44478 -0.190681,0.0544 -0.265867,0.007 -0.216739,-0.13692 z"
   id="path2488"
   inkscape:connector-curvature="0" /><path
   style="opacity:1;fill:#98ff54;fill-opacity:0.98431373;stroke:#98ff55;stroke-width:1.26566243;stroke-linejoin:round;stroke-miterlimit:4;stroke-dasharray:none;stroke-dashoffset:0;stroke-opacity:0.98431373;paint-order:normal"
   d="m 18.75526,446.71032 c -1.0499,-0.11348 -1.564623,-0.46135 -1.918162,-1.29637 -0.186042,-0.43941 -0.183899,-0.78274 0.01306,-2.09296 0.278136,-1.85022 2.429632,-12.54566 7.287373,-36.2267 1.945735,-9.48528 3.803511,-18.56453 4.128392,-20.17611 0.32488,-1.61157 0.640409,-2.98243 0.701174,-3.04635 0.06077,-0.0639 0.897286,-0.23363 1.858935,-0.37714 5.99794,-0.89509 11.177599,-2.62768 17.590474,-5.884 3.47121,-1.7626 4.87066,-2.61768 13.375923,-8.17284 9.525624,-6.22159 11.510328,-7.43324 15.219067,-9.29115 5.663047,-2.83693 11.634246,-4.75691 17.243085,-5.54436 10.156429,-1.42591 20.712809,-0.41173 29.340949,2.81884 5.90353,2.21042 9.41807,4.16259 20.1237,11.17781 4.17289,2.73442 8.71726,5.65384 10.09861,6.48761 5.10599,3.08191 10.7028,5.61791 15.18682,6.88139 1.94269,0.5474 6.10504,1.44272 7.87217,1.69329 0.43447,0.0616 0.85951,0.19801 0.94456,0.30311 0.085,0.1051 2.22972,10.32519 4.76594,22.71131 5.61562,27.42494 7.48564,36.82099 7.53014,37.83577 0.038,0.86657 -0.28379,1.49586 -1.00733,1.96995 -0.42904,0.28112 -4.51863,0.29621 -84.92988,0.31324 -46.46352,0.01 -84.904771,-0.0281 -85.425,-0.0843 z"
   id="path2490"
   inkscape:connector-curvature="0" /><path
   style="opacity:1;fill:#98ff54;fill-opacity:0.98431373;stroke:#98ff55;stroke-width:1.26566243;stroke-linejoin:round;stroke-miterlimit:4;stroke-dasharray:none;stroke-dashoffset:0;stroke-opacity:0.98431373;paint-order:normal"
   d="m 18.75439,447.20509 c -1.371132,-0.1448 -1.916215,-0.48503 -2.350703,-1.46726 -0.268907,-0.60791 -0.313282,-0.94771 -0.222283,-1.70211 0.201376,-1.66942 2.048231,-10.87432 9.393924,-46.82018 2.599141,-12.71881 2.834181,-13.74621 3.174598,-13.87684 0.121103,-0.0465 1.335436,-0.28256 2.698518,-0.52465 5.996485,-1.06497 10.363414,-2.55578 16.549471,-5.64979 3.11851,-1.55975 5.183604,-2.81742 13.813518,-8.41263 8.593722,-5.57175 10.276716,-6.62 12.870633,-8.01646 7.020427,-3.77952 13.877975,-6.02074 21.118995,-6.90223 2.919705,-0.35543 9.259819,-0.48572 12.222869,-0.25119 6.99566,0.55373 13.05267,2.03031 19.08777,4.65323 4.19296,1.8223 6.9668,3.44707 17.24597,10.10176 10.42318,6.74792 11.74468,7.547 15.52504,9.38768 5.5416,2.69822 9.1502,3.88212 15.5328,5.09594 1.28836,0.24502 2.45877,0.50772 2.60092,0.5838 0.36723,0.19654 0.50238,0.79007 3.69772,16.23921 5.64509,27.29339 8.88402,43.59854 8.91382,44.87332 0.0273,1.16784 -0.40781,1.96911 -1.31823,2.42751 -0.66229,0.33347 -1.02034,0.33497 -85.05313,0.35672 -46.413424,0.012 -84.889422,-0.0311 -85.50222,-0.0958 z"
   id="path2492"
   inkscape:connector-curvature="0" /><path
   style="opacity:1;fill:#98ff54;fill-opacity:0.98431373;stroke:#98ff55;stroke-width:1.26566243;stroke-linejoin:round;stroke-miterlimit:4;stroke-dasharray:none;stroke-dashoffset:0;stroke-opacity:0.98431373;paint-order:normal"
   d="m 171.4824,370.18898 c -5.95749,-2.00946 -8.57394,-3.45512 -20.92957,-11.5642 -3.45338,-2.26647 -6.67681,-4.37167 -7.16317,-4.67821 -0.99521,-0.62726 -1.2795,-1.02769 -1.11357,-1.56851 0.17017,-0.55466 5.7506,-10.25157 13.51046,-23.47665 6.80028,-11.58969 7.14196,-12.13916 7.54869,-12.13916 0.20959,0 0.49974,0.0942 0.64477,0.2093 0.18547,0.1472 0.94445,3.53748 2.5583,11.42755 5.64525,27.59951 8.45879,41.5572 8.45949,41.96681 8.4e-4,0.43916 -0.26092,0.64763 -0.80825,0.64389 -0.15363,-10e-4 -1.37184,-0.37042 -2.70715,-0.82082 z"
   id="path2494"
   inkscape:connector-curvature="0" /><path
   style="opacity:1;fill:#98ff54;fill-opacity:0.98431373;stroke:#98ff55;stroke-width:1.26566243;stroke-linejoin:round;stroke-miterlimit:4;stroke-dasharray:none;stroke-dashoffset:0;stroke-opacity:0.98431373;paint-order:normal"
   d="m 170.93393,370.58412 c -4.61573,-1.58681 -7.66197,-3.13371 -13.59992,-6.90613 -7.00994,-4.45347 -14.6282,-9.49754 -15.11115,-10.00514 -0.35232,-0.37029 -0.54417,-0.73983 -0.54417,-1.04815 0,-0.51735 2.96387,-5.7808 11.04873,-19.6211 5.73613,-9.81957 9.08182,-15.42445 9.65863,-16.18069 0.78818,-1.03336 1.99777,-0.667 2.38972,0.7238 0.36815,1.30634 1.94223,8.86667 5.85014,28.09836 5.5263,27.19614 5.14654,25.06897 4.56877,25.59184 -0.50385,0.45598 -1.46304,0.30902 -4.26075,-0.65279 z"
   id="path2496"
   inkscape:connector-curvature="0" /><path
   style="opacity:1;fill:#98ff54;fill-opacity:0.98431373;stroke:#98ff55;stroke-width:1.26566243;stroke-linejoin:round;stroke-miterlimit:4;stroke-dasharray:none;stroke-dashoffset:0;stroke-opacity:0.98431373;paint-order:normal"
   d="m 31.853898,370.70227 c -0.190629,-0.35619 1.608735,-9.20952 24.01429,-118.15624 13.192684,-64.14927 13.499349,-65.6092 13.97902,-66.54944 0.562255,-1.10211 2.034784,-2.40606 3.672048,-3.25168 l 1.489142,-0.76911 h 27.885212 c 20.02226,0 28.13541,0.0531 28.7725,0.18841 2.09023,0.44385 4.59432,2.33761 5.31926,4.02279 0.45566,1.0592 1.04674,3.64602 3.24623,14.20683 1.79598,8.62338 3.25387,15.71228 13.82481,67.2224 l 6.01256,29.29802 -12.68794,21.85386 c -6.97837,12.01962 -13.50844,23.261 -14.51126,24.98085 -1.24906,2.14215 -1.93393,3.15627 -2.17455,3.21995 -0.20616,0.0546 -1.68099,-0.35925 -3.57037,-1.00176 -5.16329,-1.75586 -9.15826,-2.69042 -14.61125,-3.41806 -1.8333,-0.24464 -2.43823,-0.38712 -2.60356,-0.61321 -0.16906,-0.2312 -0.20597,-1.7901 -0.17169,-7.25053 l 0.0437,-6.956 5.5254,-0.12099 c 3.03898,-0.0666 5.93265,-0.19823 6.43039,-0.29262 2.07081,-0.39271 3.83038,-1.68567 4.62934,-3.40171 0.5843,-1.25498 0.5843,-3.50468 0,-4.75966 -0.52472,-1.12702 -1.65288,-2.2465 -2.88343,-2.86124 l -0.97652,-0.48783 -6.25389,-0.1081 c -3.43964,-0.0595 -6.32164,-0.14997 -6.40445,-0.20115 -0.0877,-0.0542 -0.15056,-8.16279 -0.15056,-19.42735 0,-15.31776 0.0435,-19.34912 0.20929,-19.40566 0.11512,-0.0392 3.03884,-0.13602 6.49717,-0.21505 7.3121,-0.16711 7.11967,-0.12421 8.84875,-1.9726 1.19005,-1.27216 1.52518,-2.17231 1.51964,-4.0816 -0.005,-1.86267 -0.64943,-3.14473 -2.19239,-4.36437 -1.62507,-1.28455 -1.94526,-1.3384 -8.75342,-1.47225 l -6.04532,-0.11885 v -19.33893 -19.33892 l 5.19053,-0.10848 c 6.40503,-0.13385 7.28541,-0.20979 8.41201,-0.72556 1.09369,-0.50071 2.47281,-1.88669 2.9966,-3.01151 0.32004,-0.68729 0.3927,-1.12221 0.39403,-2.35859 10e-4,-1.29886 -0.0607,-1.64099 -0.43368,-2.38948 -0.56618,-1.13617 -1.71512,-2.27215 -2.89338,-2.86071 l -0.94093,-0.47001 -6.26089,-0.11228 c -3.44349,-0.0618 -6.32549,-0.15221 -6.40445,-0.20101 -0.079,-0.0488 -0.14791,-2.25049 -0.15323,-4.89264 -0.0166,-8.2382 -0.19148,-9.28238 -1.83044,-10.92698 -2.99566,-3.00599 -8.201513,-2.16182 -10.102076,1.63812 -0.396018,0.79178 -0.402099,0.88005 -0.510387,7.40891 -0.06028,3.63417 -0.166559,6.66455 -0.236186,6.73418 -0.06963,0.0696 -2.950633,0.17724 -6.402239,0.23914 l -6.275647,0.11256 -0.920902,0.46355 c -1.355535,0.68233 -2.254393,1.53851 -2.834979,2.70036 -0.461413,0.92337 -0.513752,1.18471 -0.513752,2.56527 0,1.37597 0.05314,1.64352 0.506782,2.55133 0.548899,1.09844 1.590548,2.16993 2.620126,2.69518 1.118575,0.57066 2.485224,0.70801 8.25878,0.83007 l 5.609125,0.11858 v 19.33892 19.33893 l -5.692844,0.11074 c -3.131064,0.0609 -6.020586,0.15467 -6.421158,0.20838 -1.788601,0.2398 -4.076612,2.11801 -4.63759,3.80696 -0.410479,1.23584 -0.383363,3.2109 0.05778,4.20817 0.415964,0.94036 1.696239,2.34802 2.623379,2.88442 1.247698,0.72184 1.913799,0.7958 8.126436,0.9023 l 5.943999,0.1019 0.04257,19.32985 c 0.02341,10.63142 -0.01637,19.38879 -0.08843,19.46084 -0.07205,0.072 -3.016851,0.18259 -6.544008,0.24564 l -6.413014,0.11465 -0.949486,0.56958 c -1.310302,0.78602 -1.966276,1.46169 -2.546618,2.62306 -0.440936,0.88239 -0.495643,1.16072 -0.494188,2.51427 0.0013,1.24559 0.07337,1.6761 0.396569,2.37018 0.793979,1.7051 2.279606,2.90346 4.137058,3.33709 0.768911,0.17951 2.690504,0.28652 6.766707,0.37685 l 5.692844,0.12615 0.04656,6.78118 c 0.02561,3.72965 0.0077,6.94118 -0.03973,7.13672 -0.120377,0.49597 -0.677493,0.66265 -3.271846,0.97886 -7.947991,0.96873 -14.93638,3.17538 -23.106249,7.29601 -4.009015,2.02203 -6.973627,3.80136 -13.662967,8.20042 -13.150056,8.64777 -15.723663,10.08131 -21.647513,12.05801 -2.630034,0.87761 -3.27925,0.9738 -3.521195,0.52172 z"
   id="path2510"
   inkscape:connector-curvature="0" /><path
   style="opacity:1;fill:#98ff54;fill-opacity:0.98431373;stroke:#98ff55;stroke-width:1.26566243;stroke-linejoin:round;stroke-miterlimit:4;stroke-dasharray:none;stroke-dashoffset:0;stroke-opacity:0.98431373;paint-order:normal"
   d="m 31.579966,371.22978 c -0.530724,-0.53073 -0.612279,-0.0903 6.039066,-32.61705 7.318375,-35.78875 24.794405,-120.76747 28.390541,-138.05147 2.730283,-13.12248 3.034599,-14.39492 3.66011,-15.30407 0.718114,-1.04374 1.986434,-2.10374 3.602684,-3.01096 l 1.388304,-0.77926 28.707889,0.0451 28.70789,0.0451 1.43046,0.70885 c 1.76407,0.87417 3.30517,2.2935 3.89927,3.59118 0.45939,1.00344 1.00081,3.17793 2.24365,9.01118 1.92987,9.05777 20.94919,101.69263 20.94919,102.03441 0,0.23792 -27.76592,48.15265 -28.63355,49.41198 -0.25379,0.36836 -0.61882,0.8114 -0.81118,0.98453 -0.42355,0.38121 -0.62425,0.33728 -5.50182,-1.2044 -4.8264,-1.5255 -7.94201,-2.23121 -13.10775,-2.96899 -2.28072,-0.32574 -2.95667,-0.57368 -3.18236,-1.16729 -0.26232,-0.68995 -0.22203,-14.39619 0.0429,-14.60218 0.11556,-0.0898 2.87152,-0.24501 6.1533,-0.34645 6.5657,-0.20296 6.98044,-0.26653 8.48088,-1.29993 1.09468,-0.75393 1.82221,-1.82171 2.0768,-3.04806 0.5064,-2.43931 -0.61643,-4.68066 -2.93363,-5.85603 -0.88393,-0.44836 -1.24602,-0.46795 -13.01958,-0.70434 -1.0188,-0.0205 -0.97563,0.92259 -0.92729,-20.25875 0.0387,-16.94939 0.0743,-19.28394 0.298,-19.50756 0.21057,-0.21056 1.27087,-0.28364 6.19515,-0.42702 3.26761,-0.0951 6.34969,-0.25527 6.84907,-0.35583 0.72961,-0.14693 1.07776,-0.34343 1.77235,-1.00034 0.47541,-0.44962 1.07639,-1.20703 1.33551,-1.68312 0.40503,-0.74417 0.47164,-1.05573 0.47473,-2.22035 0.005,-1.74249 -0.43943,-2.82661 -1.57657,-3.84899 -1.59721,-1.43603 -2.12087,-1.52766 -9.69517,-1.69638 -3.10591,-0.0692 -5.3603,-0.18683 -5.48355,-0.28617 -0.30688,-0.24735 -0.30688,-39.18801 0,-39.4359 0.12292,-0.0993 2.2824,-0.21624 5.2324,-0.28338 7.80912,-0.17771 8.47144,-0.30064 10.03297,-1.86218 1.22832,-1.22832 1.50068,-1.89417 1.50132,-3.67039 3.3e-4,-1.13 -0.0749,-1.64962 -0.30124,-2.07741 -0.48201,-0.91121 -1.77911,-2.1897 -2.69047,-2.65189 -0.83322,-0.42255 -0.88983,-0.4274 -6.53334,-0.5591 -3.13107,-0.0731 -5.93772,-0.13746 -6.23702,-0.14307 -0.30971,-0.006 -0.68845,-0.15449 -0.87904,-0.34509 -0.30473,-0.30473 -0.33566,-0.56471 -0.34358,-2.88828 -0.0168,-4.92357 -0.28159,-10.03473 -0.56784,-10.96062 -0.519,-1.67873 -2.46111,-3.16408 -4.42363,-3.38324 -2.45718,-0.27441 -4.681203,0.80764 -5.769365,2.80695 l -0.461526,0.84798 -0.157124,6.30592 c -0.08642,3.46826 -0.203929,6.55543 -0.261137,6.86038 -0.09061,0.48301 -0.184514,0.56805 -0.72874,0.66 -0.343596,0.0581 -3.255896,0.16525 -6.471774,0.23823 l -5.847053,0.13268 -0.87286,0.44315 c -1.198491,0.60848 -1.903542,1.26602 -2.483237,2.31592 -0.442883,0.80211 -0.491346,1.04025 -0.487892,2.39749 0.0043,1.69186 0.27221,2.4043 1.354671,3.60245 1.38253,1.5303 2.530606,1.74426 10.358838,1.93055 2.816822,0.067 4.943542,0.18619 5.064957,0.28378 0.306897,0.24668 0.306897,39.18933 0,39.43162 -0.120345,0.095 -2.877797,0.23451 -6.488168,0.32826 -6.255553,0.16242 -6.281982,0.16461 -7.116055,0.59129 -1.190623,0.60907 -2.335918,1.67644 -2.789661,2.59985 -0.320258,0.65175 -0.390035,1.06253 -0.390757,2.30036 -8.37e-4,1.33369 0.0507,1.59466 0.447744,2.27003 0.500439,0.85123 1.672743,1.99996 2.452524,2.4032 0.837491,0.43309 2.499585,0.57342 8.233388,0.69514 3.177218,0.0675 5.528784,0.18495 5.650985,0.28236 0.165251,0.13173 0.209295,4.2102 0.209295,19.38062 0,10.56757 -0.04572,19.44235 -0.101592,19.72173 -0.08257,0.41285 -0.206066,0.52756 -0.659568,0.61264 -0.306886,0.0576 -3.30672,0.17059 -6.666298,0.25117 l -6.108325,0.14649 -1.010105,0.68595 c -1.027215,0.69757 -1.578243,1.3071 -2.132077,2.35844 -0.234518,0.44519 -0.308065,0.9482 -0.306014,2.09296 0.0024,1.34737 0.0546,1.60193 0.492909,2.40419 0.555784,1.01728 1.451964,1.85278 2.531802,2.36036 0.982834,0.46199 2.931508,0.63305 8.768734,0.76973 2.793554,0.0654 4.858714,0.18201 4.981239,0.28123 0.278375,0.22543 0.305324,14.20318 0.02838,14.72065 -0.283559,0.52984 -1.070652,0.76462 -3.849731,1.14836 -8.421471,1.16285 -14.473848,3.11021 -22.926646,7.37668 -3.799125,1.91758 -6.395156,3.48229 -14.146564,8.52662 -12.950676,8.42782 -15.260324,9.69716 -21.142679,11.61965 -2.540949,0.83045 -3.368222,0.93625 -3.816364,0.48811 z"
   id="path2512"
   inkscape:connector-curvature="0" /></svg>